Commissioner-ThinFlair.ufo
<glyph name="asterisk" format="2">
  <advance width="916"/>
  <unicode hex="002A"/>
  <outline>
    <contour>
      <point x="820" y="770" type="curve"/>
      <point x="858" y="830" type="line"/>
      <point x="728" y="904"/>
      <point x="598" y="980"/>
      <point x="472" y="1058" type="curve"/>
      <point x="344" y="1140"/>
      <point x="220" y="1222"/>
      <point x="96" y="1306" type="curve"/>
      <point x="58" y="1246" type="line"/>
      <point x="188" y="1172"/>
      <point x="318" y="1096"/>
      <point x="446" y="1016" type="curve"/>
      <point x="572" y="936"/>
      <point x="696" y="854"/>
    </contour>
    <contour>
      <point x="96" y="770" type="line"/>
      <point x="220" y="854"/>
      <point x="344" y="936"/>
      <point x="472" y="1018" type="curve"/>
      <point x="598" y="1096"/>
      <point x="728" y="1172"/>
      <point x="858" y="1246" type="curve"/>
      <point x="820" y="1306" type="line"/>
      <point x="696" y="1222"/>
      <point x="572" y="1140"/>
      <point x="446" y="1060" type="curve"/>
      <point x="318" y="980"/>
      <point x="188" y="904"/>
      <point x="58" y="830" type="curve"/>
    </contour>
    <contour>
      <point x="422" y="588" type="curve"/>
      <point x="494" y="588" type="line"/>
      <point x="488" y="738"/>
      <point x="484" y="888"/>
      <point x="482" y="1040" type="curve"/>
      <point x="484" y="1188"/>
      <point x="488" y="1338"/>
      <point x="494" y="1488" type="curve"/>
      <point x="422" y="1488" type="line"/>
      <point x="428" y="1338"/>
      <point x="432" y="1188"/>
      <point x="434" y="1040" type="curve"/>
      <point x="432" y="888"/>
      <point x="428" y="738"/>
    </contour>
  </outline>
</glyph>
<glyph name="plus" format="2">
  <advance width="1160"/>
  <unicode hex="002B"/>
  <outline>
    <contour>
      <point x="546" y="130" type="curve"/>
      <point x="614" y="130" type="line"/>
      <point x="610" y="246"/>
      <point x="610" y="356"/>
      <point x="610" y="450" type="curve"/>
      <point x="610" y="730" type="line"/>
      <point x="610" y="824"/>
      <point x="610" y="934"/>
      <point x="614" y="1050" type="curve"/>
      <point x="546" y="1050" type="line"/>
      <point x="550" y="934"/>
      <point x="550" y="824"/>
      <point x="550" y="730" type="curve"/>
      <point x="550" y="450" type="line"/>
      <point x="550" y="356"/>
      <point x="550" y="246"/>
    </contour>
    <contour>
      <point x="140" y="556" type="line"/>
      <point x="256" y="560"/>
      <point x="366" y="560"/>
      <point x="460" y="560" type="curve"/>
      <point x="700" y="560" type="line"/>
      <point x="794" y="560"/>
      <point x="904" y="560"/>
      <point x="1020" y="556" type="curve"/>
      <point x="1020" y="624" type="line"/>
      <point x="904" y="620"/>
      <point x="794" y="620"/>
      <point x="700" y="620" type="curve"/>
      <point x="460" y="620" type="line"/>
      <point x="366" y="620"/>
      <point x="256" y="620"/>
      <point x="140" y="624" type="curve"/>
    </contour>
  </outline>
</glyph>
<glyph name="hyphen" format="2">
  <advance width="840"/>
  <unicode hex="002D"/>
  <outline>
    <contour>
      <point x="140" y="556" type="line"/>
      <point x="242" y="560"/>
      <point x="338" y="560"/>
      <point x="420" y="560" type="curve"/>
      <point x="502" y="560"/>
      <point x="598" y="560"/>
      <point x="700" y="556" type="curve"/>
      <point x="700" y="624" type="line"/>
      <point x="598" y="620"/>
      <point x="502" y="620"/>
      <point x="420" y="620" type="curve"/>
      <point x="338" y="620"/>
      <point x="242" y="620"/>
      <point x="140" y="624" type="curve"/>
    </contour>
  </outline>
</glyph>
<glyph name="two" format="2">
  <advance width="1086"/>
  <unicode hex="0032"/>
  <outline>
    <contour>
      <point x="106" y="0" type="line"/>
      <point x="966" y="0" type="line"/>
      <point x="966" y="66" type="line"/>
      <point x="802" y="62"/>
      <point x="636" y="60"/>
      <point x="472" y="60" type="curve"/>
      <point x="170" y="60" type="line"/>
      <point x="186" y="44" type="line"/>
      <point x="428" y="260" type="line"/>
      <point x="752" y="550"/>
      <point x="932" y="778"/>
      <point x="932" y="1016" type="curve" smooth="yes"/>
      <point x="932" y="1246"/>
      <point x="786" y="1392"/>
      <point x="532" y="1392" type="curve" smooth="yes"/>
      <point x="400" y="1392"/>
      <point x="206" y="1314"/>
      <point x="100" y="1270" type="curve"/>
      <point x="112" y="1196" type="line"/>
      <point x="294" y="1290"/>
      <point x="464" y="1328"/>
      <point x="532" y="1328" type="curve"/>
      <point x="758" y="1326"/>
      <point x="870" y="1222"/>
      <point x="870" y="1014" type="curve" smooth="yes"/>
      <point x="870" y="786"/>
      <point x="686" y="570"/>
      <point x="372" y="290" type="curve"/>
      <point x="284" y="212"/>
      <point x="194" y="134"/>
      <point x="106" y="60" type="curve"/>
    </contour>
  </outline>
</glyph>
<glyph name="seven" format="2">
  <advance width="1022"/>
  <unicode hex="0037"/>
  <outline>
    <contour>
      <point x="246" y="0" type="curve"/>
      <point x="326" y="0" type="line"/>
      <point x="400" y="172"/>
      <point x="480" y="346"/>
      <point x="558" y="514" type="curve"/>
      <point x="694" y="806" type="line"/>
      <point x="776" y="984"/>
      <point x="852" y="1148"/>
      <point x="932" y="1316" type="curve"/>
      <point x="932" y="1368" type="line"/>
      <point x="50" y="1368" type="line"/>
      <point x="50" y="1302" type="line"/>
      <point x="228" y="1308"/>
      <point x="406" y="1308"/>
      <point x="582" y="1308" type="curve"/>
      <point x="880" y="1308" type="line"/>
      <point x="864" y="1328" type="line"/>
      <point x="816" y="1220"/>
      <point x="768" y="1114"/>
      <point x="718" y="1006" type="curve"/>
      <point x="514" y="568" type="line"/>
      <point x="428" y="382"/>
      <point x="338" y="190"/>
    </contour>
  </outline>
</glyph>
<glyph name="less" format="2">
  <advance width="1120"/>
  <unicode hex="003C"/>
  <outline>
    <contour>
      <point x="980" y="172" type="curve"/>
      <point x="980" y="250" type="line"/>
      <point x="820" y="314"/>
      <point x="650" y="390"/>
      <point x="486" y="464" type="curve"/>
      <point x="224" y="582" type="line"/>
      <point x="224" y="594" type="line"/>
      <point x="486" y="712" type="line"/>
      <point x="650" y="786"/>
      <point x="820" y="862"/>
      <point x="980" y="926" type="curve"/>
      <point x="980" y="1004" type="line"/>
      <point x="866" y="950"/>
      <point x="754" y="898"/>
      <point x="658" y="854" type="curve"/>
      <point x="458" y="764" type="line"/>
      <point x="366" y="722"/>
      <point x="254" y="672"/>
      <point x="140" y="624" type="curve"/>
      <point x="140" y="552" type="line"/>
      <point x="254" y="504"/>
      <point x="366" y="454"/>
      <point x="458" y="412" type="curve"/>
      <point x="658" y="322" type="line"/>
      <point x="754" y="278"/>
      <point x="866" y="226"/>
    </contour>
  </outline>
</glyph>
<glyph name="equal" format="2">
  <advance width="1120"/>
  <unicode hex="003D"/>
  <outline>
    <contour>
      <point x="140" y="346" type="line"/>
      <point x="256" y="350"/>
      <point x="366" y="350"/>
      <point x="460" y="350" type="curve"/>
      <point x="660" y="350" type="line"/>
      <point x="754" y="350"/>
      <point x="864" y="350"/>
      <point x="980" y="346" type="curve"/>
      <point x="980" y="414" type="line"/>
      <point x="864" y="410"/>
      <point x="754" y="410"/>
      <point x="660" y="410" type="curve"/>
      <point x="460" y="410" type="line"/>
      <point x="366" y="410"/>
      <point x="256" y="410"/>
      <point x="140" y="414" type="curve"/>
    </contour>
    <contour>
      <point x="140" y="766" type="line"/>
      <point x="256" y="770"/>
      <point x="366" y="770"/>
      <point x="460" y="770" type="curve"/>
      <point x="660" y="770" type="line"/>
      <point x="754" y="770"/>
      <point x="864" y="770"/>
      <point x="980" y="766" type="curve"/>
      <point x="980" y="834" type="line"/>
      <point x="864" y="830"/>
      <point x="754" y="830"/>
      <point x="660" y="830" type="curve"/>
      <point x="460" y="830" type="line"/>
      <point x="366" y="830"/>
      <point x="256" y="830"/>
      <point x="140" y="834" type="curve"/>
    </contour>
  </outline>
</glyph>
<glyph name="at" format="2">
  <advance width="1750"/>
  <unicode hex="0040"/>
  <outline>
    <contour>
      <point x="940" y="-244" type="curve" smooth="yes"/>
      <point x="1108" y="-244"/>
      <point x="1342" y="-164"/>
      <point x="1504" y="-92" type="curve"/>
      <point x="1504" y="-16" type="line"/>
      <point x="1302" y="-114"/>
      <point x="1082" y="-176"/>
      <point x="940" y="-182" type="curve"/>
      <point x="366" y="-176"/>
      <point x="110" y="234"/>
      <point x="200" y="666" type="curve" smooth="yes"/>
      <point x="288" y="1086"/>
      <point x="582" y="1252"/>
      <point x="930" y="1258" type="curve"/>
      <point x="1380" y="1252"/>
      <point x="1636" y="910"/>
      <point x="1554" y="496" type="curve" smooth="yes"/>
      <point x="1522" y="336"/>
      <point x="1372" y="186"/>
      <point x="1272" y="186" type="curve"/>
      <point x="1158" y="190"/>
      <point x="1112" y="250"/>
      <point x="1138" y="380" type="curve"/>
      <point x="1182" y="592" type="line"/>
      <point x="1208" y="714"/>
      <point x="1236" y="832"/>
      <point x="1274" y="956" type="curve"/>
      <point x="1212" y="950" type="line"/>
      <point x="1180" y="840" type="line"/>
      <point x="1170" y="840" type="line"/>
      <point x="1108" y="906"/>
      <point x="990" y="968"/>
      <point x="886" y="968" type="curve" smooth="yes"/>
      <point x="698" y="968"/>
      <point x="550" y="830"/>
      <point x="502" y="600" type="curve" smooth="yes"/>
      <point x="452" y="364"/>
      <point x="544" y="146"/>
      <point x="786" y="146" type="curve" smooth="yes"/>
      <point x="874" y="146"/>
      <point x="970" y="190"/>
      <point x="1062" y="282" type="curve"/>
      <point x="1072" y="282" type="line"/>
      <point x="1084" y="208"/>
      <point x="1136" y="126"/>
      <point x="1286" y="126" type="curve" smooth="yes"/>
      <point x="1380" y="126"/>
      <point x="1574" y="274"/>
      <point x="1614" y="484" type="curve" smooth="yes"/>
      <point x="1700" y="938"/>
      <point x="1408" y="1320"/>
      <point x="932" y="1320" type="curve" smooth="yes"/>
      <point x="552" y="1320"/>
      <point x="228" y="1118"/>
      <point x="138" y="674" type="curve" smooth="yes"/>
      <point x="44" y="214"/>
      <point x="330" y="-244"/>
    </contour>
    <contour>
      <point x="794" y="206" type="curve"/>
      <point x="592" y="210"/>
      <point x="518" y="376"/>
      <point x="564" y="594" type="curve" smooth="yes"/>
      <point x="602" y="772"/>
      <point x="708" y="902"/>
      <point x="890" y="906" type="curve" smooth="yes"/>
      <point x="992" y="908"/>
      <point x="1088" y="852"/>
      <point x="1160" y="778" type="curve"/>
      <point x="1076" y="388" type="line"/>
      <point x="982" y="260"/>
      <point x="878" y="210"/>
    </contour>
  </outline>
</glyph>
<glyph name="A" format="2">
  <advance width="1336"/>
  <unicode hex="0041"/>
  <anchor x="668" y="0" name="bottom"/>
  <anchor x="1270" y="0" name="ogonek"/>
  <anchor x="668" y="1426" name="top"/>
  <outline>
    <contour>
      <point x="62" y="0" type="curve"/>
      <point x="146" y="0" type="line"/>
      <point x="212" y="180"/>
      <point x="286" y="374"/>
      <point x="354" y="550" type="curve"/>
      <point x="666" y="1354" type="line"/>
      <point x="678" y="1354" type="line"/>
      <point x="988" y="544" type="line"/>
      <point x="1052" y="376"/>
      <point x="1124" y="178"/>
      <point x="1188" y="0" type="curve"/>
      <point x="1272" y="0" type="line"/>
      <point x="1206" y="152"/>
      <point x="1140" y="324"/>
      <point x="1080" y="482" type="curve"/>
      <point x="892" y="974" type="line"/>
      <point x="824" y="1150"/>
      <point x="774" y="1282"/>
      <point x="726" y="1426" type="curve"/>
      <point x="618" y="1426" type="line"/>
      <point x="568" y="1282"/>
      <point x="518" y="1150"/>
      <point x="450" y="974" type="curve"/>
      <point x="260" y="484" type="line"/>
      <point x="200" y="330"/>
      <point x="128" y="154"/>
    </contour>
    <contour>
      <point x="274" y="406" type="line"/>
      <point x="1064" y="406" type="line"/>
      <point x="1064" y="466" type="line"/>
      <point x="274" y="466" type="line"/>
    </contour>
  </outline>
</glyph>
<glyph name="F" format="2">
  <advance width="1142"/>
  <unicode hex="0046"/>
  <outline>
    <contour>
      <point x="216" y="0" type="curve"/>
      <point x="290" y="0" type="line"/>
      <point x="284" y="162"/>
      <point x="284" y="302"/>
      <point x="284" y="476" type="curve"/>
      <point x="284" y="944" type="line"/>
      <point x="284" y="1118"/>
      <point x="284" y="1258"/>
      <point x="290" y="1420" type="curve"/>
      <point x="290" y="1426" type="line"/>
      <point x="216" y="1426" type="line"/>
      <point x="220" y="1264"/>
      <point x="220" y="1124"/>
      <point x="220" y="950" type="curve"/>
      <point x="220" y="476" type="line"/>
      <point x="220" y="302"/>
      <point x="220" y="162"/>
    </contour>
    <contour>
      <point x="272" y="694" type="line"/>
      <point x="540" y="694" type="line"/>
      <point x="728" y="694"/>
      <point x="854" y="694"/>
      <point x="992" y="692" type="curve"/>
      <point x="992" y="762" type="line"/>
      <point x="862" y="756"/>
      <point x="734" y="756"/>
      <point x="542" y="756" type="curve"/>
      <point x="272" y="756" type="line"/>
    </contour>
    <contour>
      <point x="272" y="1364" type="line"/>
      <point x="524" y="1364" type="line"/>
      <point x="744" y="1364"/>
      <point x="896" y="1362"/>
      <point x="1038" y="1356" type="curve"/>
      <point x="1038" y="1426" type="line"/>
      <point x="272" y="1426" type="line"/>
    </contour>
  </outline>
</glyph>
<glyph name="G" format="2">
  <advance width="1474"/>
  <unicode hex="0047"/>
  <anchor x="802" y="0" name="bottom"/>
  <anchor x="802" y="1426" name="top"/>
  <outline>
    <contour>
      <point x="872" y="-18" type="curve" smooth="yes"/>
      <point x="1052" y="-18"/>
      <point x="1222" y="30"/>
      <point x="1320" y="70" type="curve"/>
      <point x="1308" y="148" type="line"/>
      <point x="1178" y="76"/>
      <point x="1010" y="48"/>
      <point x="872" y="48" type="curve"/>
      <point x="394" y="54"/>
      <point x="186" y="340"/>
      <point x="186" y="718" type="curve" smooth="yes"/>
      <point x="186" y="1124"/>
      <point x="440" y="1378"/>
      <point x="816" y="1384" type="curve"/>
      <point x="898" y="1384"/>
      <point x="1074" y="1348"/>
      <point x="1280" y="1258" type="curve"/>
      <point x="1290" y="1334" type="line"/>
      <point x="1168" y="1382"/>
      <point x="972" y="1450"/>
      <point x="816" y="1450" type="curve" smooth="yes"/>
      <point x="404" y="1450"/>
      <point x="120" y="1144"/>
      <point x="120" y="718" type="curve" smooth="yes"/>
      <point x="120" y="306"/>
      <point x="374" y="-18"/>
    </contour>
    <contour>
      <point x="1248" y="70" type="curve"/>
      <point x="1320" y="70" type="line"/>
      <point x="1316" y="204"/>
      <point x="1316" y="300"/>
      <point x="1316" y="400" type="curve"/>
      <point x="1316" y="520"/>
      <point x="1316" y="604"/>
      <point x="1320" y="698" type="curve"/>
      <point x="1246" y="698" type="line"/>
      <point x="1250" y="604"/>
      <point x="1252" y="520"/>
      <point x="1252" y="400" type="curve"/>
      <point x="1252" y="300"/>
      <point x="1252" y="204"/>
    </contour>
  </outline>
</glyph>
<glyph name="I" format="2">
  <advance width="506"/>
  <unicode hex="0049"/>
  <anchor x="252" y="0" name="bottom"/>
  <anchor x="290" y="0" name="ogonek"/>
  <anchor x="252" y="1426" name="top"/>
  <anchor x="74" y="1426" name="topleft"/>
  <outline>
    <contour>
      <point x="216" y="0" type="curve"/>
      <point x="290" y="0" type="line"/>
      <point x="284" y="162"/>
      <point x="284" y="302"/>
      <point x="284" y="476" type="curve"/>
      <point x="284" y="950" type="line"/>
      <point x="284" y="1124"/>
      <point x="284" y="1264"/>
      <point x="290" y="1426" type="curve"/>
      <point x="216" y="1426" type="line"/>
      <point x="220" y="1264"/>
      <point x="220" y="1124"/>
      <point x="220" y="950" type="curve"/>
      <point x="220" y="476" type="line"/>
      <point x="220" y="302"/>
      <point x="220" y="162"/>
    </contour>
  </outline>
</glyph>
<glyph name="K" format="2">
  <advance width="1294"/>
  <unicode hex="004B"/>
  <anchor x="664" y="0" name="bottom"/>
  <anchor x="664" y="1426" name="top"/>
  <outline>
    <contour>
      <point x="1122" y="0" type="curve"/>
      <point x="1232" y="0" type="line"/>
      <point x="1096" y="118"/>
      <point x="886" y="304"/>
      <point x="730" y="444" type="curve"/>
      <point x="394" y="748" type="line"/>
      <point x="394" y="720" type="line"/>
      <point x="694" y="990" type="line"/>
      <point x="854" y="1132"/>
      <point x="1014" y="1274"/>
      <point x="1188" y="1426" type="curve"/>
      <point x="1080" y="1426" type="line"/>
      <point x="906" y="1266"/>
      <point x="784" y="1156"/>
      <point x="646" y="1032" type="curve"/>
      <point x="352" y="766" type="line"/>
      <point x="268" y="766" type="line"/>
      <point x="268" y="704" type="line"/>
      <point x="350" y="704" type="line"/>
      <point x="694" y="392" type="line"/>
      <point x="828" y="272"/>
      <point x="960" y="148"/>
    </contour>
    <contour>
      <point x="216" y="0" type="curve"/>
      <point x="290" y="0" type="line"/>
      <point x="284" y="162"/>
      <point x="284" y="302"/>
      <point x="284" y="476" type="curve"/>
      <point x="284" y="950" type="line"/>
      <point x="284" y="1124"/>
      <point x="284" y="1264"/>
      <point x="290" y="1426" type="curve"/>
      <point x="216" y="1426" type="line"/>
      <point x="220" y="1264"/>
      <point x="220" y="1124"/>
      <point x="220" y="950" type="curve"/>
      <point x="220" y="476" type="line"/>
      <point x="220" y="302"/>
      <point x="220" y="162"/>
    </contour>
  </outline>
</glyph>
<glyph name="L" format="2">
  <advance width="1132"/>
  <unicode hex="004C"/>
  <anchor x="638" y="0" name="bottom"/>
  <anchor x="824" y="714" name="center"/>
  <anchor x="364" y="1426" name="top"/>
  <anchor x="536" y="988" name="topright"/>
  <outline>
    <contour>
      <point x="216" y="0" type="curve"/>
      <point x="290" y="0" type="line"/>
      <point x="290" y="8" type="line"/>
      <point x="284" y="170"/>
      <point x="284" y="310"/>
      <point x="284" y="484" type="curve"/>
      <point x="284" y="950" type="line"/>
      <point x="284" y="1124"/>
      <point x="284" y="1264"/>
      <point x="290" y="1426" type="curve"/>
      <point x="216" y="1426" type="line"/>
      <point x="220" y="1264"/>
      <point x="220" y="1124"/>
      <point x="220" y="950" type="curve"/>
      <point x="220" y="476" type="line"/>
      <point x="220" y="302"/>
      <point x="220" y="162"/>
    </contour>
    <contour>
      <point x="272" y="0" type="line"/>
      <point x="1056" y="0" type="line"/>
      <point x="1056" y="70" type="line"/>
      <point x="888" y="64"/>
      <point x="746" y="62"/>
      <point x="500" y="62" type="curve"/>
      <point x="272" y="62" type="line"/>
    </contour>
  </outline>
</glyph>
<glyph name="R" format="2">
  <advance width="1314"/>
  <unicode hex="0052"/>
  <anchor x="658" y="0" name="bottom"/>
  <anchor x="620" y="1426" name="top"/>
  <outline>
    <contour>
      <point x="1138" y="0" type="curve"/>
      <point x="1238" y="0" type="line"/>
      <point x="1132" y="110"/>
      <point x="984" y="274"/>
      <point x="870" y="402" type="curve"/>
      <point x="620" y="682" type="line"/>
      <point x="618" y="646" type="line"/>
      <point x="990" y="648"/>
      <point x="1100" y="838"/>
      <point x="1100" y="1060" type="curve" smooth="yes"/>
      <point x="1100" y="1314"/>
      <point x="960" y="1428"/>
      <point x="652" y="1428" type="curve"/>
      <point x="458" y="1428"/>
      <point x="324" y="1426"/>
      <point x="216" y="1426" type="curve"/>
      <point x="262" y="1364" type="line"/>
      <point x="648" y="1364" type="line" smooth="yes"/>
      <point x="810" y="1364"/>
      <point x="1034" y="1362"/>
      <point x="1034" y="1060" type="curve" smooth="yes"/>
      <point x="1034" y="806"/>
      <point x="892" y="702"/>
      <point x="570" y="702" type="curve" smooth="yes"/>
      <point x="274" y="702" type="line"/>
      <point x="274" y="642" type="line"/>
      <point x="598" y="642" type="line"/>
      <point x="554" y="662" type="line"/>
      <point x="824" y="360" type="line"/>
      <point x="928" y="244"/>
      <point x="1030" y="126"/>
    </contour>
    <contour>
      <point x="216" y="0" type="curve"/>
      <point x="290" y="0" type="line"/>
      <point x="284" y="162"/>
      <point x="284" y="302"/>
      <point x="284" y="476" type="curve"/>
      <point x="284" y="944" type="line"/>
      <point x="284" y="1118"/>
      <point x="284" y="1258"/>
      <point x="290" y="1420" type="curve"/>
      <point x="216" y="1426" type="line"/>
      <point x="220" y="1264"/>
      <point x="220" y="1124"/>
      <point x="220" y="950" type="curve"/>
      <point x="220" y="476" type="line"/>
      <point x="220" y="302"/>
      <point x="220" y="162"/>
    </contour>
  </outline>
</glyph>
<glyph name="S" format="2">
  <advance width="1150"/>
  <unicode hex="0053"/>
  <anchor x="586" y="0" name="bottom"/>
  <anchor x="586" y="1426" name="top"/>
  <outline>
    <contour>
      <point x="604" y="-18" type="curve" smooth="yes"/>
      <point x="916" y="-18"/>
      <point x="1054" y="160"/>
      <point x="1054" y="370" type="curve" smooth="yes"/>
      <point x="1054" y="556"/>
      <point x="946" y="652"/>
      <point x="602" y="766" type="curve" smooth="yes"/>
      <point x="318" y="860"/>
      <point x="198" y="924"/>
      <point x="198" y="1090" type="curve" smooth="yes"/>
      <point x="198" y="1298"/>
      <point x="370" y="1380"/>
      <point x="564" y="1384" type="curve"/>
      <point x="638" y="1384"/>
      <point x="784" y="1350"/>
      <point x="952" y="1268" type="curve"/>
      <point x="964" y="1346" type="line"/>
      <point x="860" y="1388"/>
      <point x="702" y="1450"/>
      <point x="570" y="1450" type="curve" smooth="yes"/>
      <point x="288" y="1450"/>
      <point x="132" y="1290"/>
      <point x="132" y="1090" type="curve" smooth="yes"/>
      <point x="132" y="888"/>
      <point x="292" y="800"/>
      <point x="574" y="708" type="curve" smooth="yes"/>
      <point x="840" y="622"/>
      <point x="988" y="552"/>
      <point x="988" y="370" type="curve" smooth="yes"/>
      <point x="988" y="132"/>
      <point x="816" y="48"/>
      <point x="604" y="48" type="curve"/>
      <point x="470" y="48"/>
      <point x="318" y="90"/>
      <point x="160" y="158" type="curve"/>
      <point x="148" y="84" type="line"/>
      <point x="256" y="46"/>
      <point x="420" y="-18"/>
    </contour>
  </outline>
</glyph>
<glyph name="W" format="2">
  <advance width="1998"/>
  <unicode hex="0057"/>
  <anchor x="998" y="0" name="bottom"/>
  <anchor x="998" y="1426" name="top"/>
  <outline>
    <contour>
      <point x="492" y="0" type="curve"/>
      <point x="608" y="0" type="line"/>
      <point x="666" y="220"/>
      <point x="742" y="486"/>
      <point x="806" y="706" type="curve"/>
      <point x="992" y="1344" type="line"/>
      <point x="1004" y="1344" type="line"/>
      <point x="1192" y="706" type="line"/>
      <point x="1256" y="486"/>
      <point x="1332" y="222"/>
      <point x="1392" y="0" type="curve"/>
      <point x="1508" y="0" type="line"/>
      <point x="1542" y="136"/>
      <point x="1594" y="310"/>
      <point x="1638" y="452" type="curve"/>
      <point x="1776" y="900" type="line"/>
      <point x="1824" y="1058"/>
      <point x="1884" y="1254"/>
      <point x="1944" y="1426" type="curve"/>
      <point x="1862" y="1426" type="line"/>
      <point x="1800" y="1202"/>
      <point x="1720" y="938"/>
      <point x="1652" y="716" type="curve"/>
      <point x="1456" y="74" type="line"/>
      <point x="1444" y="74" type="line"/>
      <point x="1256" y="714" type="line"/>
      <point x="1188" y="942"/>
      <point x="1114" y="1198"/>
      <point x="1052" y="1426" type="curve"/>
      <point x="942" y="1426" type="line"/>
      <point x="884" y="1204"/>
      <point x="806" y="934"/>
      <point x="742" y="716" type="curve"/>
      <point x="556" y="74" type="line"/>
      <point x="544" y="74" type="line"/>
      <point x="350" y="710" type="line"/>
      <point x="280" y="938"/>
      <point x="202" y="1198"/>
      <point x="138" y="1426" type="curve"/>
      <point x="56" y="1426" type="line"/>
      <point x="112" y="1258"/>
      <point x="178" y="1054"/>
      <point x="226" y="896" type="curve"/>
      <point x="362" y="450" type="line"/>
      <point x="404" y="312"/>
      <point x="454" y="142"/>
    </contour>
  </outline>
</glyph>
<glyph name="Z" format="2">
  <advance width="1318"/>
  <unicode hex="005A"/>
  <anchor x="660" y="0" name="bottom"/>
  <anchor x="660" y="714" name="center"/>
  <anchor x="660" y="1426" name="top"/>
  <outline>
    <contour>
      <point x="110" y="0" type="line"/>
      <point x="1198" y="0" type="line"/>
      <point x="1198" y="72" type="line"/>
      <point x="1022" y="62"/>
      <point x="736" y="62"/>
      <point x="540" y="62" type="curve"/>
      <point x="132" y="62" type="line"/>
      <point x="160" y="10" type="line"/>
      <point x="792" y="840" type="line"/>
      <point x="924" y="1014"/>
      <point x="1056" y="1188"/>
      <point x="1192" y="1362" type="curve"/>
      <point x="1192" y="1426" type="line"/>
      <point x="122" y="1426" type="line"/>
      <point x="122" y="1356" type="line"/>
      <point x="344" y="1362"/>
      <point x="552" y="1364"/>
      <point x="736" y="1364" type="curve"/>
      <point x="1182" y="1364" type="line"/>
      <point x="1136" y="1400" type="line"/>
      <point x="546" y="622" type="line"/>
      <point x="416" y="450"/>
      <point x="232" y="210"/>
      <point x="110" y="56" type="curve"/>
    </contour>
  </outline>
</glyph>
<glyph name="asciicircum" format="2">
  <advance width="1180"/>
  <unicode hex="005E"/>
  <outline>
    <contour>
      <point x="970" y="788" type="curve"/>
      <point x="1044" y="790" type="line"/>
      <point x="906" y="982"/>
      <point x="770" y="1176"/>
      <point x="642" y="1368" type="curve"/>
      <point x="538" y="1368" type="line"/>
      <point x="410" y="1176"/>
      <point x="274" y="986"/>
      <point x="136" y="794" type="curve"/>
      <point x="210" y="794" type="line"/>
      <point x="338" y="966"/>
      <point x="460" y="1140"/>
      <point x="584" y="1312" type="curve"/>
      <point x="596" y="1312" type="line"/>
      <point x="720" y="1138"/>
      <point x="842" y="962"/>
    </contour>
  </outline>
</glyph>
<glyph name="underscore" format="2">
  <advance width="760"/>
  <unicode hex="005F"/>
  <outline>
    <contour>
      <point x="-20" y="-180" type="line"/>
      <point x="96" y="-176"/>
      <point x="206" y="-176"/>
      <point x="300" y="-176" type="curve"/>
      <point x="460" y="-176" type="line"/>
      <point x="554" y="-176"/>
      <point x="664" y="-176"/>
      <point x="780" y="-180" type="curve"/>
      <point x="780" y="-116" type="line"/>
      <point x="664" y="-120"/>
      <point x="554" y="-120"/>
      <point x="460" y="-120" type="curve"/>
      <point x="300" y="-120" type="line"/>
      <point x="206" y="-120"/>
      <point x="96" y="-120"/>
      <point x="-20" y="-116" type="curve"/>
    </contour>
  </outline>
</glyph>
<glyph name="n" format="2">
  <advance width="1148"/>
  <unicode hex="006E"/>
  <anchor x="588" y="0" name="bottom"/>
  <anchor x="588" y="988" name="top"/>
  <outline>
    <contour>
      <point x="216" y="0" type="curve"/>
      <point x="286" y="0" type="line"/>
      <point x="280" y="150"/>
      <point x="280" y="280"/>
      <point x="280" y="442" type="curve"/>
      <point x="280" y="692" type="line"/>
      <point x="380" y="836"/>
      <point x="548" y="944"/>
      <point x="662" y="944" type="curve" smooth="yes"/>
      <point x="848" y="944"/>
      <point x="908" y="844"/>
      <point x="908" y="652" type="curve"/>
      <point x="908" y="442" type="line"/>
      <point x="908" y="280"/>
      <point x="908" y="150"/>
      <point x="904" y="0" type="curve"/>
      <point x="974" y="0" type="line"/>
      <point x="968" y="150"/>
      <point x="968" y="280"/>
      <point x="968" y="442" type="curve"/>
      <point x="968" y="494"/>
      <point x="970" y="566"/>
      <point x="970" y="652" type="curve" smooth="yes"/>
      <point x="970" y="880"/>
      <point x="886" y="1008"/>
      <point x="664" y="1008" type="curve" smooth="yes"/>
      <point x="516" y="1008"/>
      <point x="364" y="884"/>
      <point x="292" y="800" type="curve"/>
      <point x="280" y="800" type="line"/>
      <point x="262" y="994" type="line"/>
      <point x="202" y="988" type="line"/>
      <point x="216" y="840"/>
      <point x="220" y="684"/>
      <point x="220" y="542" type="curve"/>
      <point x="220" y="442" type="line"/>
      <point x="220" y="280"/>
      <point x="220" y="150"/>
    </contour>
  </outline>
</glyph>
<glyph name="p" format="2">
  <advance width="1192"/>
  <unicode hex="0070"/>
  <outline>
    <contour>
      <point x="214" y="-388" type="curve"/>
      <point x="286" y="-384" type="line"/>
      <point x="280" y="-234"/>
      <point x="280" y="-104"/>
      <point x="280" y="58" type="curve"/>
      <point x="280" y="142" type="line"/>
      <point x="292" y="142" type="line"/>
      <point x="390" y="38"/>
      <point x="510" y="-18"/>
      <point x="626" y="-18" type="curve" smooth="yes"/>
      <point x="918" y="-18"/>
      <point x="1068" y="220"/>
      <point x="1068" y="498" type="curve" smooth="yes"/>
      <point x="1068" y="792"/>
      <point x="900" y="1008"/>
      <point x="622" y="1008" type="curve" smooth="yes"/>
      <point x="478" y="1008"/>
      <point x="364" y="932"/>
      <point x="286" y="862" type="curve"/>
      <point x="274" y="862" type="line"/>
      <point x="262" y="994" type="line"/>
      <point x="202" y="988" type="line"/>
      <point x="216" y="840"/>
      <point x="220" y="684"/>
      <point x="220" y="542" type="curve"/>
      <point x="220" y="58" type="line"/>
      <point x="220" y="-104"/>
      <point x="220" y="-238"/>
    </contour>
    <contour>
      <point x="626" y="46" type="curve"/>
      <point x="496" y="46"/>
      <point x="376" y="116"/>
      <point x="280" y="248" type="curve"/>
      <point x="280" y="768" type="line"/>
      <point x="378" y="886"/>
      <point x="510" y="942"/>
      <point x="622" y="944" type="curve"/>
      <point x="884" y="938"/>
      <point x="1006" y="744"/>
      <point x="1006" y="498" type="curve" smooth="yes"/>
      <point x="1006" y="262"/>
      <point x="894" y="52"/>
    </contour>
  </outline>
</glyph>
<glyph name="q" format="2">
  <advance width="1170"/>
  <unicode hex="0071"/>
  <outline>
    <contour>
      <point x="906" y="-388" type="curve"/>
      <point x="978" y="-384" type="line"/>
      <point x="972" y="-234"/>
      <point x="972" y="-104"/>
      <point x="972" y="58" type="curve"/>
      <point x="972" y="542" type="line"/>
      <point x="972" y="686"/>
      <point x="976" y="844"/>
      <point x="990" y="994" type="curve"/>
      <point x="930" y="988" type="line"/>
      <point x="918" y="862" type="line"/>
      <point x="906" y="862" type="line"/>
      <point x="828" y="932"/>
      <point x="714" y="1008"/>
      <point x="570" y="1008" type="curve" smooth="yes"/>
      <point x="292" y="1008"/>
      <point x="124" y="792"/>
      <point x="124" y="498" type="curve" smooth="yes"/>
      <point x="124" y="220"/>
      <point x="274" y="-18"/>
      <point x="566" y="-18" type="curve" smooth="yes"/>
      <point x="682" y="-18"/>
      <point x="802" y="38"/>
      <point x="900" y="142" type="curve"/>
      <point x="912" y="142" type="line"/>
      <point x="912" y="58" type="line"/>
      <point x="912" y="-104"/>
      <point x="912" y="-238"/>
    </contour>
    <contour>
      <point x="566" y="46" type="curve"/>
      <point x="298" y="52"/>
      <point x="186" y="262"/>
      <point x="186" y="498" type="curve" smooth="yes"/>
      <point x="186" y="744"/>
      <point x="308" y="938"/>
      <point x="570" y="944" type="curve"/>
      <point x="682" y="942"/>
      <point x="814" y="886"/>
      <point x="912" y="768" type="curve"/>
      <point x="912" y="248" type="line"/>
      <point x="816" y="116"/>
      <point x="696" y="46"/>
    </contour>
  </outline>
</glyph>
<glyph name="x" format="2">
  <advance width="1020"/>
  <unicode hex="0078"/>
  <outline>
    <contour>
      <point x="70" y="0" type="curve"/>
      <point x="158" y="0" type="line"/>
      <point x="226" y="98"/>
      <point x="280" y="170"/>
      <point x="354" y="268" type="curve"/>
      <point x="494" y="454" type="line"/>
      <point x="504" y="454" type="line"/>
      <point x="658" y="260" type="line"/>
      <point x="734" y="164"/>
      <point x="790" y="92"/>
      <point x="860" y="0" type="curve"/>
      <point x="950" y="0" type="line"/>
      <point x="844" y="126"/>
      <point x="780" y="204"/>
      <point x="706" y="296" type="curve"/>
      <point x="528" y="520" type="line"/>
      <point x="530" y="492" type="line"/>
      <point x="688" y="702" type="line"/>
      <point x="762" y="800"/>
      <point x="808" y="860"/>
      <point x="912" y="988" type="curve"/>
      <point x="822" y="988" type="line"/>
      <point x="754" y="890"/>
      <point x="700" y="818"/>
      <point x="632" y="728" type="curve"/>
      <point x="500" y="552" type="line"/>
      <point x="492" y="552" type="line"/>
      <point x="360" y="726" type="line"/>
      <point x="292" y="816"/>
      <point x="238" y="888"/>
      <point x="164" y="992" type="curve"/>
      <point x="78" y="988" type="line"/>
      <point x="180" y="864"/>
      <point x="234" y="794"/>
      <point x="310" y="694" type="curve"/>
      <point x="468" y="484" type="line"/>
      <point x="466" y="516" type="line"/>
      <point x="302" y="298" type="line"/>
      <point x="228" y="200"/>
      <point x="174" y="130"/>
    </contour>
  </outline>
</glyph>
<glyph name="y" format="2">
  <advance width="1000"/>
  <unicode hex="0079"/>
  <anchor x="700" y="0" name="bottom"/>
  <anchor x="500" y="988" name="top"/>
  <outline>
    <contour>
      <point x="300" y="-388" type="curve"/>
      <point x="378" y="-384" type="line"/>
      <point x="434" y="-240"/>
      <point x="498" y="-78"/>
      <point x="600" y="176" type="curve"/>
      <point x="712" y="454" type="line"/>
      <point x="812" y="704"/>
      <point x="862" y="826"/>
      <point x="934" y="988" type="curve"/>
      <point x="856" y="988" type="line"/>
      <point x="788" y="802"/>
      <point x="716" y="620"/>
      <point x="640" y="430" type="curve"/>
      <point x="494" y="70" type="line"/>
      <point x="482" y="70" type="line"/>
      <point x="348" y="428" type="line"/>
      <point x="276" y="620"/>
      <point x="210" y="800"/>
      <point x="140" y="992" type="curve"/>
      <point x="66" y="988" type="line"/>
      <point x="126" y="846"/>
      <point x="184" y="694"/>
      <point x="238" y="552" type="curve"/>
      <point x="306" y="372" type="line"/>
      <point x="356" y="240"/>
      <point x="410" y="98"/>
      <point x="460" y="-38" type="curve"/>
      <point x="462" y="-8" type="line"/>
      <point x="412" y="-134"/>
      <point x="356" y="-262"/>
    </contour>
  </outline>
</glyph>
<glyph name="z" format="2">
  <advance width="964"/>
  <unicode hex="007A"/>
  <guideline x="218" y="249" angle="232.6668"/>
  <guideline x="260" y="255" angle="52.6668"/>
  <anchor x="478" y="0" name="bottom"/>
  <anchor x="478" y="494" name="center"/>
  <anchor x="478" y="988" name="top"/>
  <outline>
    <contour>
      <point x="88" y="0" type="line"/>
      <point x="884" y="0" type="line"/>
      <point x="884" y="62" type="line"/>
      <point x="736" y="58"/>
      <point x="536" y="56"/>
      <point x="416" y="56" type="curve"/>
      <point x="150" y="56" type="line"/>
      <point x="160" y="38" type="line"/>
      <point x="520" y="510" type="line"/>
      <point x="628" y="652"/>
      <point x="766" y="830"/>
      <point x="850" y="938" type="curve"/>
      <point x="850" y="988" type="line"/>
      <point x="88" y="988" type="line"/>
      <point x="88" y="926" type="line"/>
      <point x="248" y="932"/>
      <point x="450" y="932"/>
      <point x="568" y="932" type="curve"/>
      <point x="808" y="932" type="line"/>
      <point x="794" y="968" type="line"/>
      <point x="436" y="498" type="line"/>
      <point x="334" y="364"/>
      <point x="212" y="208"/>
      <point x="88" y="46" type="curve"/>
    </contour>
  </outline>
</glyph>
<glyph name="brokenbar" format="2">
  <advance width="500"/>
  <unicode hex="00A6"/>
  <outline>
    <contour>
      <point x="220" y="732" type="line"/>
      <point x="280" y="732" type="line"/>
      <point x="280" y="914" type="line"/>
      <point x="280" y="1130"/>
      <point x="280" y="1336"/>
      <point x="284" y="1572" type="curve"/>
      <point x="216" y="1572" type="line"/>
      <point x="220" y="1336"/>
      <point x="220" y="1130"/>
      <point x="220" y="914" type="curve"/>
    </contour>
    <contour>
      <point x="216" y="-308" type="curve"/>
      <point x="284" y="-308" type="line"/>
      <point x="280" y="-72"/>
      <point x="280" y="134"/>
      <point x="280" y="350" type="curve"/>
      <point x="280" y="532" type="line"/>
      <point x="220" y="532" type="line"/>
      <point x="220" y="350" type="line"/>
      <point x="220" y="134"/>
      <point x="220" y="-72"/>
    </contour>
  </outline>
</glyph>
<glyph name="logicalnot" format="2">
  <advance width="1120"/>
  <unicode hex="00AC"/>
  <outline>
    <contour>
      <point x="916" y="130" type="curve"/>
      <point x="984" y="130" type="line"/>
      <point x="980" y="246"/>
      <point x="980" y="356"/>
      <point x="980" y="450" type="curve"/>
      <point x="980" y="624" type="line"/>
      <point x="864" y="620"/>
      <point x="754" y="620"/>
      <point x="660" y="620" type="curve"/>
      <point x="460" y="620" type="line"/>
      <point x="366" y="620"/>
      <point x="256" y="620"/>
      <point x="140" y="624" type="curve"/>
      <point x="140" y="556" type="line"/>
      <point x="256" y="560"/>
      <point x="366" y="560"/>
      <point x="460" y="560" type="curve"/>
      <point x="660" y="560" type="line"/>
      <point x="748" y="560"/>
      <point x="852" y="560"/>
      <point x="960" y="556" type="curve"/>
      <point x="920" y="600" type="line"/>
      <point x="920" y="450" type="line"/>
      <point x="920" y="356"/>
      <point x="920" y="246"/>
    </contour>
  </outline>
</glyph>
<glyph name="AE" format="2">
  <advance width="1912"/>
  <unicode hex="00C6"/>
  <anchor x="982" y="0" name="bottom"/>
  <anchor x="982" y="1426" name="top"/>
  <outline>
    <contour>
      <point x="32" y="0" type="curve"/>
      <point x="122" y="0" type="line"/>
      <point x="224" y="180"/>
      <point x="340" y="378"/>
      <point x="442" y="552" type="curve"/>
      <point x="922" y="1364" type="line"/>
      <point x="952" y="1364" type="line"/>
      <point x="1006" y="1364" type="line"/>
      <point x="1006" y="1426" type="line"/>
      <point x="878" y="1426" type="line"/>
      <point x="802" y="1284"/>
      <point x="718" y="1142"/>
      <point x="622" y="980" type="curve"/>
      <point x="328" y="484" type="line"/>
      <point x="238" y="332"/>
      <point x="130" y="152"/>
    </contour>
    <contour>
      <point x="326" y="406" type="line"/>
      <point x="984" y="406" type="line"/>
      <point x="984" y="466" type="line"/>
      <point x="326" y="466" type="line"/>
    </contour>
    <contour>
      <point x="946" y="0" type="curve"/>
      <point x="1020" y="0" type="line"/>
      <point x="1020" y="8" type="line"/>
      <point x="1014" y="170"/>
      <point x="1014" y="310"/>
      <point x="1014" y="484" type="curve"/>
      <point x="1014" y="944" type="line"/>
      <point x="1014" y="1118"/>
      <point x="1014" y="1258"/>
      <point x="1020" y="1420" type="curve"/>
      <point x="1020" y="1426" type="line"/>
      <point x="946" y="1426" type="line"/>
      <point x="950" y="1264"/>
      <point x="950" y="1124"/>
      <point x="950" y="950" type="curve"/>
      <point x="950" y="476" type="line"/>
      <point x="950" y="302"/>
      <point x="950" y="162"/>
    </contour>
    <contour>
      <point x="1002" y="0" type="line"/>
      <point x="1786" y="0" type="line"/>
      <point x="1786" y="70" type="line"/>
      <point x="1632" y="64"/>
      <point x="1468" y="62"/>
      <point x="1282" y="62" type="curve"/>
      <point x="1002" y="62" type="line"/>
    </contour>
    <contour>
      <point x="1002" y="694" type="line"/>
      <point x="1290" y="694" type="line"/>
      <point x="1478" y="694"/>
      <point x="1604" y="694"/>
      <point x="1742" y="692" type="curve"/>
      <point x="1742" y="762" type="line"/>
      <point x="1612" y="756"/>
      <point x="1484" y="756"/>
      <point x="1292" y="756" type="curve"/>
      <point x="1002" y="756" type="line"/>
    </contour>
    <contour>
      <point x="1002" y="1364" type="line"/>
      <point x="1274" y="1364" type="line"/>
      <point x="1494" y="1364"/>
      <point x="1646" y="1362"/>
      <point x="1788" y="1356" type="curve"/>
      <point x="1788" y="1426" type="line"/>
      <point x="1002" y="1426" type="line"/>
    </contour>
  </outline>
</glyph>
<glyph name="ae" format="2">
  <advance width="1646"/>
  <unicode hex="00E6"/>
  <anchor x="804" y="0" name="bottom"/>
  <anchor x="804" y="988" name="top"/>
  <outline>
    <contour>
      <point x="1236" y="-18" type="curve" smooth="yes"/>
      <point x="1354" y="-18"/>
      <point x="1468" y="26"/>
      <point x="1544" y="52" type="curve"/>
      <point x="1538" y="126" type="line"/>
      <point x="1430" y="74"/>
      <point x="1324" y="46"/>
      <point x="1236" y="46" type="curve" smooth="yes"/>
      <point x="942" y="46"/>
      <point x="824" y="222"/>
      <point x="824" y="498" type="curve"/>
      <point x="824" y="502" type="line"/>
      <point x="824" y="758"/>
      <point x="940" y="938"/>
      <point x="1184" y="944" type="curve"/>
      <point x="1376" y="938"/>
      <point x="1504" y="832"/>
      <point x="1504" y="590" type="curve" smooth="yes"/>
      <point x="1504" y="570"/>
      <point x="1504" y="550"/>
      <point x="1502" y="528" type="curve"/>
      <point x="1556" y="474" type="line"/>
      <point x="1562" y="512"/>
      <point x="1564" y="548"/>
      <point x="1564" y="594" type="curve" smooth="yes"/>
      <point x="1564" y="854"/>
      <point x="1416" y="1008"/>
      <point x="1182" y="1008" type="curve" smooth="yes"/>
      <point x="920" y="1008"/>
      <point x="764" y="796"/>
      <point x="764" y="502" type="curve" smooth="yes"/>
      <point x="764" y="202"/>
      <point x="904" y="-18"/>
    </contour>
    <contour>
      <point x="404" y="44" type="curve" smooth="yes"/>
      <point x="264" y="44"/>
      <point x="164" y="104"/>
      <point x="164" y="256" type="curve" smooth="yes"/>
      <point x="164" y="410"/>
      <point x="292" y="468"/>
      <point x="442" y="496" type="curve" smooth="yes"/>
      <point x="668" y="538"/>
      <point x="726" y="560"/>
      <point x="764" y="578" type="curve"/>
      <point x="762" y="268" type="line"/>
      <point x="680" y="116"/>
      <point x="508" y="44"/>
    </contour>
    <contour>
      <point x="404" y="-18" type="curve" smooth="yes"/>
      <point x="566" y="-18"/>
      <point x="734" y="88"/>
      <point x="822" y="246" type="curve"/>
      <point x="800" y="500" type="line"/>
      <point x="826" y="668" type="line"/>
      <point x="826" y="906"/>
      <point x="700" y="1008"/>
      <point x="502" y="1008" type="curve" smooth="yes"/>
      <point x="394" y="1008"/>
      <point x="234" y="960"/>
      <point x="146" y="934" type="curve"/>
      <point x="152" y="862" type="line"/>
      <point x="304" y="920"/>
      <point x="444" y="944"/>
      <point x="502" y="944" type="curve" smooth="yes"/>
      <point x="650" y="944"/>
      <point x="774" y="900"/>
      <point x="764" y="624" type="curve"/>
      <point x="418" y="552" type="line" smooth="yes"/>
      <point x="280" y="524"/>
      <point x="102" y="462"/>
      <point x="102" y="254" type="curve" smooth="yes"/>
      <point x="102" y="92"/>
      <point x="212" y="-18"/>
    </contour>
    <contour>
      <point x="794" y="474" type="line"/>
      <point x="1556" y="474" type="line"/>
      <point x="1556" y="536" type="line"/>
      <point x="1512" y="534" type="line"/>
      <point x="794" y="534" type="line"/>
    </contour>
  </outline>
</glyph>
<glyph name="eth" format="2">
  <advance width="1176"/>
  <unicode hex="00F0"/>
  <outline>
    <contour>
      <point x="592" y="-18" type="curve" smooth="yes"/>
      <point x="888" y="-18"/>
      <point x="1052" y="218"/>
      <point x="1052" y="604" type="curve" smooth="yes"/>
      <point x="1052" y="898"/>
      <point x="952" y="1110"/>
      <point x="788" y="1290" type="curve"/>
      <point x="716" y="1370"/>
      <point x="632" y="1438"/>
      <point x="546" y="1500" type="curve"/>
      <point x="478" y="1458" type="line"/>
      <point x="574" y="1402"/>
      <point x="656" y="1340"/>
      <point x="722" y="1270" type="curve"/>
      <point x="898" y="1090"/>
      <point x="990" y="872"/>
      <point x="990" y="602" type="curve" smooth="yes"/>
      <point x="990" y="256"/>
      <point x="862" y="52"/>
      <point x="592" y="46" type="curve"/>
      <point x="318" y="52"/>
      <point x="186" y="264"/>
      <point x="186" y="488" type="curve" smooth="yes"/>
      <point x="186" y="710"/>
      <point x="314" y="904"/>
      <point x="584" y="910" type="curve"/>
      <point x="674" y="910"/>
      <point x="840" y="878"/>
      <point x="998" y="700" type="curve"/>
      <point x="998" y="738"/>
      <point x="998" y="784"/>
      <point x="998" y="828" type="curve"/>
      <point x="954" y="826" type="line"/>
      <point x="832" y="928"/>
      <point x="692" y="974"/>
      <point x="584" y="974" type="curve" smooth="yes"/>
      <point x="306" y="974"/>
      <point x="124" y="760"/>
      <point x="124" y="488" type="curve" smooth="yes"/>
      <point x="124" y="222"/>
      <point x="300" y="-18"/>
    </contour>
    <contour>
      <point x="370" y="1146" type="line"/>
      <point x="482" y="1182"/>
      <point x="586" y="1212"/>
      <point x="670" y="1236" type="curve"/>
      <point x="760" y="1262" type="line"/>
      <point x="844" y="1286"/>
      <point x="948" y="1314"/>
      <point x="1062" y="1344" type="curve"/>
      <point x="1046" y="1406" type="line"/>
      <point x="932" y="1370"/>
      <point x="828" y="1340"/>
      <point x="744" y="1316" type="curve"/>
      <point x="654" y="1290" type="line"/>
      <point x="570" y="1266"/>
      <point x="464" y="1236"/>
      <point x="352" y="1208" type="curve"/>
    </contour>
  </outline>
</glyph>
<glyph name="hbar" format="2">
  <advance width="1136"/>
  <unicode hex="0127"/>
  <outline>
    <contour>
      <point x="-12" y="1220" type="line"/>
      <point x="98" y="1224"/>
      <point x="200" y="1224"/>
      <point x="286" y="1224" type="curve"/>
      <point x="370" y="1224" type="line"/>
      <point x="456" y="1224"/>
      <point x="558" y="1224"/>
      <point x="668" y="1220" type="curve"/>
      <point x="668" y="1284" type="line"/>
      <point x="558" y="1280"/>
      <point x="456" y="1280"/>
      <point x="370" y="1280" type="curve"/>
      <point x="286" y="1280" type="line"/>
      <point x="200" y="1280"/>
      <point x="98" y="1280"/>
      <point x="-12" y="1280" type="curve"/>
    </contour>
    <contour>
      <point x="204" y="0" type="curve"/>
      <point x="274" y="0" type="line"/>
      <point x="268" y="150"/>
      <point x="268" y="280"/>
      <point x="268" y="442" type="curve"/>
      <point x="268" y="692" type="line"/>
      <point x="368" y="836"/>
      <point x="536" y="944"/>
      <point x="650" y="944" type="curve" smooth="yes"/>
      <point x="836" y="944"/>
      <point x="896" y="844"/>
      <point x="896" y="652" type="curve"/>
      <point x="896" y="442" type="line"/>
      <point x="896" y="280"/>
      <point x="896" y="150"/>
      <point x="892" y="0" type="curve"/>
      <point x="962" y="0" type="line"/>
      <point x="956" y="150"/>
      <point x="956" y="280"/>
      <point x="956" y="442" type="curve"/>
      <point x="956" y="494"/>
      <point x="958" y="566"/>
      <point x="958" y="652" type="curve" smooth="yes"/>
      <point x="958" y="880"/>
      <point x="874" y="1008"/>
      <point x="652" y="1008" type="curve" smooth="yes"/>
      <point x="504" y="1008"/>
      <point x="352" y="884"/>
      <point x="280" y="800" type="curve"/>
      <point x="268" y="800" type="line"/>
      <point x="268" y="988" type="line"/>
      <point x="268" y="1158"/>
      <point x="268" y="1316"/>
      <point x="274" y="1480" type="curve"/>
      <point x="196" y="1458" type="line"/>
      <point x="204" y="1314"/>
      <point x="208" y="1158"/>
      <point x="208" y="988" type="curve"/>
      <point x="208" y="442" type="line"/>
      <point x="208" y="280"/>
      <point x="208" y="150"/>
    </contour>
  </outline>
</glyph>
<glyph name="idotless" format="2">
  <advance width="476"/>
  <unicode hex="0131"/>
  <anchor x="238" y="0" name="bottom"/>
  <anchor x="274" y="0" name="ogonek"/>
  <anchor x="238" y="988" name="top"/>
  <outline>
    <contour>
      <point x="204" y="0" type="curve"/>
      <point x="274" y="0" type="line"/>
      <point x="268" y="150"/>
      <point x="268" y="280"/>
      <point x="268" y="442" type="curve"/>
      <point x="268" y="542" type="line"/>
      <point x="268" y="704"/>
      <point x="268" y="838"/>
      <point x="274" y="988" type="curve"/>
      <point x="202" y="988" type="line"/>
      <point x="208" y="838"/>
      <point x="208" y="704"/>
      <point x="208" y="542" type="curve"/>
      <point x="208" y="442" type="line"/>
      <point x="208" y="280"/>
      <point x="208" y="150"/>
    </contour>
  </outline>
</glyph>
<glyph name="Lslash" format="2">
  <advance width="1132"/>
  <unicode hex="0141"/>
  <outline>
    <contour>
      <point x="216" y="0" type="curve"/>
      <point x="290" y="0" type="line"/>
      <point x="290" y="8" type="line"/>
      <point x="284" y="170"/>
      <point x="284" y="310"/>
      <point x="284" y="484" type="curve"/>
      <point x="284" y="950" type="line"/>
      <point x="284" y="1124"/>
      <point x="284" y="1264"/>
      <point x="290" y="1426" type="curve"/>
      <point x="216" y="1426" type="line"/>
      <point x="220" y="1264"/>
      <point x="220" y="1124"/>
      <point x="220" y="950" type="curve"/>
      <point x="220" y="476" type="line"/>
      <point x="220" y="302"/>
      <point x="220" y="162"/>
    </contour>
    <contour>
      <point x="0" y="586" type="line"/>
      <point x="124" y="626"/>
      <point x="236" y="660"/>
      <point x="336" y="690" type="curve"/>
      <point x="430" y="718" type="line"/>
      <point x="530" y="748"/>
      <point x="644" y="782"/>
      <point x="768" y="814" type="curve"/>
      <point x="748" y="880" type="line"/>
      <point x="626" y="840"/>
      <point x="514" y="806"/>
      <point x="412" y="776" type="curve"/>
      <point x="320" y="748" type="line"/>
      <point x="218" y="718"/>
      <point x="106" y="686"/>
      <point x="-20" y="652" type="curve"/>
    </contour>
    <contour>
      <point x="272" y="0" type="line"/>
      <point x="1056" y="0" type="line"/>
      <point x="1056" y="70" type="line"/>
      <point x="888" y="64"/>
      <point x="746" y="62"/>
      <point x="500" y="62" type="curve"/>
      <point x="272" y="62" type="line"/>
    </contour>
  </outline>
</glyph>
<glyph name="lslash" format="2">
  <advance width="516"/>
  <unicode hex="0142"/>
  <outline>
    <contour>
      <point x="-4" y="572" type="line"/>
      <point x="82" y="600"/>
      <point x="160" y="624"/>
      <point x="234" y="646" type="curve"/>
      <point x="294" y="664" type="line"/>
      <point x="362" y="684"/>
      <point x="446" y="708"/>
      <point x="534" y="730" type="curve"/>
      <point x="516" y="792" type="line"/>
      <point x="430" y="764"/>
      <point x="352" y="740"/>
      <point x="278" y="718" type="curve"/>
      <point x="218" y="700" type="line"/>
      <point x="144" y="678"/>
      <point x="66" y="656"/>
      <point x="-22" y="634" type="curve"/>
    </contour>
    <contour>
      <point x="224" y="0" type="curve"/>
      <point x="294" y="0" type="line"/>
      <point x="288" y="150"/>
      <point x="288" y="280"/>
      <point x="288" y="442" type="curve"/>
      <point x="288" y="988" type="line"/>
      <point x="288" y="1158"/>
      <point x="288" y="1316"/>
      <point x="294" y="1480" type="curve"/>
      <point x="216" y="1458" type="line"/>
      <point x="224" y="1314"/>
      <point x="228" y="1158"/>
      <point x="228" y="988" type="curve"/>
      <point x="228" y="442" type="line"/>
      <point x="228" y="280"/>
      <point x="228" y="150"/>
    </contour>
  </outline>
</glyph>
<glyph name="Eng" format="2">
  <advance width="1516"/>
  <unicode hex="014A"/>
  <outline>
    <contour>
      <point x="1026" y="-384" type="curve"/>
      <point x="1124" y="-384" type="line"/>
      <point x="1196" y="-294"/>
      <point x="1296" y="-146"/>
      <point x="1296" y="48" type="curve" smooth="yes"/>
      <point x="1296" y="178"/>
      <point x="1294" y="322"/>
      <point x="1294" y="476" type="curve" smooth="yes"/>
      <point x="1294" y="950" type="line"/>
      <point x="1294" y="1124"/>
      <point x="1294" y="1264"/>
      <point x="1300" y="1426" type="curve"/>
      <point x="1226" y="1426" type="line"/>
      <point x="1230" y="1264"/>
      <point x="1230" y="1124"/>
      <point x="1230" y="950" type="curve"/>
      <point x="1230" y="124" type="line"/>
      <point x="1222" y="124" type="line"/>
      <point x="852" y="638" type="line"/>
      <point x="670" y="890"/>
      <point x="486" y="1150"/>
      <point x="292" y="1426" type="curve"/>
      <point x="216" y="1426" type="line"/>
      <point x="220" y="1264"/>
      <point x="220" y="1124"/>
      <point x="220" y="950" type="curve"/>
      <point x="220" y="476" type="line"/>
      <point x="220" y="302"/>
      <point x="220" y="162"/>
      <point x="216" y="0" type="curve"/>
      <point x="290" y="0" type="line"/>
      <point x="284" y="162"/>
      <point x="284" y="302"/>
      <point x="284" y="476" type="curve"/>
      <point x="284" y="1310" type="line"/>
      <point x="292" y="1310" type="line"/>
      <point x="662" y="792" type="line"/>
      <point x="884" y="482"/>
      <point x="1062" y="232"/>
      <point x="1226" y="0" type="curve"/>
      <point x="1264" y="0" type="line"/>
      <point x="1228" y="66" type="line"/>
      <point x="1228" y="54" type="line"/>
      <point x="1228" y="-138"/>
      <point x="1140" y="-262"/>
    </contour>
  </outline>
</glyph>
<glyph name="eng" format="2">
  <advance width="1144"/>
  <unicode hex="014B"/>
  <outline>
    <contour>
      <point x="730" y="-388" type="curve"/>
      <point x="820" y="-384" type="line"/>
      <point x="882" y="-296"/>
      <point x="970" y="-162"/>
      <point x="970" y="34" type="curve" smooth="yes"/>
      <point x="970" y="152"/>
      <point x="970" y="274"/>
      <point x="970" y="542" type="curve"/>
      <point x="970" y="570"/>
      <point x="970" y="608"/>
      <point x="970" y="652" type="curve" smooth="yes"/>
      <point x="970" y="880"/>
      <point x="886" y="1008"/>
      <point x="664" y="1008" type="curve" smooth="yes"/>
      <point x="516" y="1008"/>
      <point x="364" y="884"/>
      <point x="292" y="800" type="curve"/>
      <point x="280" y="800" type="line"/>
      <point x="262" y="994" type="line"/>
      <point x="202" y="988" type="line"/>
      <point x="216" y="840"/>
      <point x="220" y="684"/>
      <point x="220" y="542" type="curve"/>
      <point x="220" y="442" type="line"/>
      <point x="220" y="280"/>
      <point x="220" y="150"/>
      <point x="216" y="0" type="curve"/>
      <point x="286" y="0" type="line"/>
      <point x="280" y="150"/>
      <point x="280" y="280"/>
      <point x="280" y="442" type="curve"/>
      <point x="280" y="692" type="line"/>
      <point x="380" y="836"/>
      <point x="548" y="944"/>
      <point x="662" y="944" type="curve" smooth="yes"/>
      <point x="848" y="944"/>
      <point x="908" y="844"/>
      <point x="908" y="652" type="curve"/>
      <point x="908" y="442" type="line"/>
      <point x="906" y="50" type="line"/>
      <point x="906" y="-164"/>
      <point x="832" y="-266"/>
    </contour>
  </outline>
</glyph>
<glyph name="jdotless" format="2">
  <advance width="476"/>
  <unicode hex="0237"/>
  <anchor x="240" y="-384" name="bottom"/>
  <anchor x="238" y="988" name="top"/>
  <outline>
    <contour>
      <point x="30" y="-388" type="curve"/>
      <point x="120" y="-384" type="line"/>
      <point x="182" y="-296"/>
      <point x="270" y="-162"/>
      <point x="270" y="34" type="curve" smooth="yes"/>
      <point x="270" y="152"/>
      <point x="268" y="274"/>
      <point x="268" y="542" type="curve"/>
      <point x="268" y="704"/>
      <point x="268" y="838"/>
      <point x="274" y="988" type="curve"/>
      <point x="202" y="988" type="line"/>
      <point x="208" y="838"/>
      <point x="208" y="704"/>
      <point x="208" y="542" type="curve"/>
      <point x="208" y="442" type="line"/>
      <point x="206" y="50" type="line"/>
      <point x="206" y="-164"/>
      <point x="132" y="-266"/>
    </contour>
  </outline>
</glyph>
<glyph name="acutecomb" format="2">
  <unicode hex="0301"/>
  <anchor x="600" y="988" name="_top"/>
  <anchor x="598" y="1372" name="top"/>
  <outline>
    <contour>
      <point x="488" y="1172" type="curve"/>
      <point x="554" y="1174" type="line"/>
      <point x="660" y="1302"/>
      <point x="764" y="1428"/>
      <point x="864" y="1558" type="curve"/>
      <point x="772" y="1556" type="line"/>
      <point x="682" y="1428"/>
      <point x="586" y="1300"/>
    </contour>
  </outline>
</glyph>
<glyph name="circumflexcomb" format="2">
  <unicode hex="0302"/>
  <anchor x="600" y="988" name="_top"/>
  <anchor x="598" y="1490" name="top"/>
  <outline>
    <contour>
      <point x="862" y="1170" type="curve"/>
      <point x="928" y="1172" type="line"/>
      <point x="830" y="1300"/>
      <point x="736" y="1428"/>
      <point x="644" y="1554" type="curve"/>
      <point x="556" y="1554" type="line"/>
      <point x="654" y="1428"/>
      <point x="758" y="1298"/>
    </contour>
    <contour>
      <point x="266" y="1174" type="curve"/>
      <point x="332" y="1174" type="line"/>
      <point x="438" y="1302"/>
      <point x="538" y="1428"/>
      <point x="638" y="1554" type="curve"/>
      <point x="550" y="1554" type="line"/>
      <point x="458" y="1428"/>
      <point x="364" y="1302"/>
    </contour>
  </outline>
</glyph>
<glyph name="macroncomb" format="2">
  <unicode hex="0304"/>
  <anchor x="600" y="988" name="_top"/>
  <anchor x="600" y="1336" name="top"/>
  <outline>
    <contour>
      <point x="308" y="1298" type="line"/>
      <point x="396" y="1300"/>
      <point x="494" y="1300"/>
      <point x="600" y="1300" type="curve"/>
      <point x="706" y="1300"/>
      <point x="804" y="1300"/>
      <point x="892" y="1298" type="curve"/>
      <point x="892" y="1358" type="line"/>
      <point x="804" y="1356"/>
      <point x="706" y="1356"/>
      <point x="600" y="1356" type="curve"/>
      <point x="494" y="1356"/>
      <point x="396" y="1356"/>
      <point x="308" y="1358" type="curve"/>
    </contour>
  </outline>
</glyph>
<glyph name="brevecomb" format="2">
  <unicode hex="0306"/>
  <anchor x="600" y="988" name="_top"/>
  <anchor x="598" y="1366" name="top"/>
  <outline>
    <contour>
      <point x="596" y="1170" type="curve" smooth="yes"/>
      <point x="780" y="1170"/>
      <point x="882" y="1296"/>
      <point x="882" y="1516" type="curve"/>
      <point x="824" y="1516" type="line"/>
      <point x="824" y="1312"/>
      <point x="742" y="1236"/>
      <point x="596" y="1232" type="curve"/>
      <point x="452" y="1236"/>
      <point x="370" y="1312"/>
      <point x="370" y="1518" type="curve"/>
      <point x="312" y="1516" type="line"/>
      <point x="312" y="1296"/>
      <point x="416" y="1170"/>
    </contour>
  </outline>
</glyph>
<glyph name="dieresiscomb" format="2">
  <unicode hex="0308"/>
  <anchor x="598" y="988" name="_top"/>
  <anchor x="596" y="1350" name="top"/>
  <outline>
    <contour>
      <point x="796" y="1256" type="curve" smooth="yes"/>
      <point x="848" y="1256"/>
      <point x="868" y="1286"/>
      <point x="868" y="1350" type="curve" smooth="yes"/>
      <point x="868" y="1402"/>
      <point x="848" y="1422"/>
      <point x="798" y="1422" type="curve" smooth="yes"/>
      <point x="746" y="1422"/>
      <point x="726" y="1404"/>
      <point x="726" y="1356" type="curve" smooth="yes"/>
      <point x="726" y="1286"/>
      <point x="746" y="1256"/>
    </contour>
    <contour>
      <point x="396" y="1256" type="curve" smooth="yes"/>
      <point x="448" y="1256"/>
      <point x="468" y="1286"/>
      <point x="468" y="1350" type="curve" smooth="yes"/>
      <point x="468" y="1402"/>
      <point x="448" y="1422"/>
      <point x="398" y="1422" type="curve" smooth="yes"/>
      <point x="346" y="1422"/>
      <point x="326" y="1404"/>
      <point x="326" y="1356" type="curve" smooth="yes"/>
      <point x="326" y="1286"/>
      <point x="346" y="1256"/>
    </contour>
  </outline>
</glyph>
<glyph name="dotbelowcomb" format="2">
  <unicode hex="0323"/>
  <anchor x="600" y="0" name="_bottom"/>
  <anchor x="600" y="0" name="bottom"/>
  <outline>
    <contour>
      <point x="598" y="-404" type="curve" smooth="yes"/>
      <point x="652" y="-404"/>
      <point x="674" y="-372"/>
      <point x="674" y="-306" type="curve" smooth="yes"/>
      <point x="674" y="-250"/>
      <point x="652" y="-230"/>
      <point x="600" y="-230" type="curve" smooth="yes"/>
      <point x="546" y="-230"/>
      <point x="524" y="-248"/>
      <point x="524" y="-300" type="curve" smooth="yes"/>
      <point x="524" y="-372"/>
      <point x="546" y="-404"/>
    </contour>
  </outline>
</glyph>
<glyph name="commaaccentcomb" format="2">
  <unicode hex="0326"/>
  <anchor x="600" y="0" name="_bottom"/>
  <anchor x="600" y="-546" name="bottom"/>
  <outline>
    <contour>
      <point x="498" y="-564" type="curve"/>
      <point x="546" y="-562" type="line"/>
      <point x="610" y="-496"/>
      <point x="670" y="-394"/>
      <point x="670" y="-312" type="curve" smooth="yes"/>
      <point x="670" y="-266"/>
      <point x="650" y="-232"/>
      <point x="606" y="-230" type="curve"/>
      <point x="560" y="-232" type="line"/>
      <point x="562" y="-264"/>
      <point x="564" y="-298"/>
      <point x="564" y="-330" type="curve"/>
      <point x="564" y="-422"/>
      <point x="554" y="-490"/>
    </contour>
  </outline>
</glyph>
<glyph name="slashshortcomb" format="2">
  <unicode hex="0337"/>
  <anchor x="596" y="488" name="_center"/>
  <outline>
    <contour>
      <point x="186" y="-122" type="line"/>
      <point x="280" y="10"/>
      <point x="366" y="122"/>
      <point x="472" y="260" type="curve"/>
      <point x="758" y="634" type="line"/>
      <point x="864" y="772"/>
      <point x="958" y="892"/>
      <point x="1058" y="1016" type="curve"/>
      <point x="1002" y="1056" type="line"/>
      <point x="910" y="930"/>
      <point x="824" y="816"/>
      <point x="714" y="672" type="curve"/>
      <point x="426" y="296" type="line"/>
      <point x="322" y="160"/>
      <point x="236" y="50"/>
      <point x="132" y="-80" type="curve"/>
    </contour>
  </outline>
</glyph>
<glyph name="slashlongcomb" format="2">
  <unicode hex="0338"/>
  <anchor x="612" y="714" name="_center"/>
  <outline>
    <contour>
      <point x="40" y="-114" type="line"/>
      <point x="172" y="60"/>
      <point x="292" y="218"/>
      <point x="438" y="406" type="curve"/>
      <point x="832" y="926" type="line"/>
      <point x="978" y="1116"/>
      <point x="1098" y="1270"/>
      <point x="1236" y="1446" type="curve"/>
      <point x="1178" y="1490" type="line"/>
      <point x="1048" y="1312"/>
      <point x="928" y="1154"/>
      <point x="780" y="960" type="curve"/>
      <point x="390" y="446" type="line"/>
      <point x="246" y="258"/>
      <point x="128" y="110"/>
      <point x="-14" y="-68" type="curve"/>
    </contour>
  </outline>
</glyph>
<glyph name="dagger" format="2">
  <advance width="1120"/>
  <unicode hex="2020"/>
  <outline>
    <contour>
      <point x="524" y="0" type="curve"/>
      <point x="596" y="0" type="line"/>
      <point x="590" y="292"/>
      <point x="590" y="546"/>
      <point x="590" y="862" type="curve"/>
      <point x="590" y="894" type="line"/>
      <point x="590" y="1064"/>
      <point x="592" y="1224"/>
      <point x="596" y="1368" type="curve"/>
      <point x="524" y="1368" type="line"/>
      <point x="528" y="1224"/>
      <point x="530" y="1064"/>
      <point x="530" y="894" type="curve"/>
      <point x="530" y="862" type="line"/>
      <point x="530" y="546"/>
      <point x="530" y="292"/>
    </contour>
    <contour>
      <point x="120" y="856" type="line"/>
      <point x="236" y="860"/>
      <point x="346" y="860"/>
      <point x="440" y="860" type="curve"/>
      <point x="680" y="860" type="line"/>
      <point x="774" y="860"/>
      <point x="884" y="860"/>
      <point x="1000" y="856" type="curve"/>
      <point x="1000" y="924" type="line"/>
      <point x="884" y="920"/>
      <point x="774" y="920"/>
      <point x="680" y="920" type="curve"/>
      <point x="440" y="920" type="line"/>
      <point x="346" y="920"/>
      <point x="236" y="920"/>
      <point x="120" y="924" type="curve"/>
    </contour>
  </outline>
</glyph>
<glyph name="daggerdbl" format="2">
  <advance width="1120"/>
  <unicode hex="2021"/>
  <outline>
    <contour>
      <point x="524" y="0" type="curve"/>
      <point x="596" y="0" type="line"/>
      <point x="590" y="156"/>
      <point x="590" y="292"/>
      <point x="590" y="462" type="curve"/>
      <point x="590" y="894" type="line"/>
      <point x="590" y="1064"/>
      <point x="592" y="1224"/>
      <point x="596" y="1368" type="curve"/>
      <point x="524" y="1368" type="line"/>
      <point x="528" y="1224"/>
      <point x="530" y="1064"/>
      <point x="530" y="894" type="curve"/>
      <point x="530" y="462" type="line"/>
      <point x="530" y="292"/>
      <point x="530" y="156"/>
    </contour>
    <contour>
      <point x="120" y="876" type="line"/>
      <point x="236" y="880"/>
      <point x="346" y="880"/>
      <point x="440" y="880" type="curve"/>
      <point x="680" y="880" type="line"/>
      <point x="774" y="880"/>
      <point x="884" y="880"/>
      <point x="1000" y="876" type="curve"/>
      <point x="1000" y="944" type="line"/>
      <point x="884" y="940"/>
      <point x="774" y="940"/>
      <point x="680" y="940" type="curve"/>
      <point x="440" y="940" type="line"/>
      <point x="346" y="940"/>
      <point x="236" y="940"/>
      <point x="120" y="944" type="curve"/>
    </contour>
    <contour>
      <point x="120" y="416" type="line"/>
      <point x="236" y="420"/>
      <point x="346" y="420"/>
      <point x="440" y="420" type="curve"/>
      <point x="680" y="420" type="line"/>
      <point x="774" y="420"/>
      <point x="884" y="420"/>
      <point x="1000" y="416" type="curve"/>
      <point x="1000" y="484" type="line"/>
      <point x="884" y="480"/>
      <point x="774" y="480"/>
      <point x="680" y="480" type="curve"/>
      <point x="440" y="480" type="line"/>
      <point x="346" y="480"/>
      <point x="236" y="480"/>
      <point x="120" y="484" type="curve"/>
    </contour>
  </outline>
</glyph>
<glyph name="fraction" format="2">
  <advance width="546"/>
  <unicode hex="2044"/>
  <outline>
    <contour>
      <point x="-168" y="0" type="curve"/>
      <point x="-88" y="0" type="line"/>
      <point x="-10" y="146"/>
      <point x="62" y="276"/>
      <point x="164" y="458" type="curve"/>
      <point x="442" y="954" type="line"/>
      <point x="548" y="1144"/>
      <point x="620" y="1272"/>
      <point x="712" y="1426" type="curve"/>
      <point x="632" y="1426" type="line"/>
      <point x="552" y="1272"/>
      <point x="480" y="1144"/>
      <point x="374" y="954" type="curve"/>
      <point x="96" y="458" type="line"/>
      <point x="-6" y="276"/>
      <point x="-78" y="146"/>
    </contour>
  </outline>
</glyph>
<glyph name="peseta" format="2">
  <advance width="1402"/>
  <unicode hex="20A7"/>
  <outline>
    <contour>
      <point x="326" y="596" type="line"/>
      <point x="402" y="596"/>
      <point x="532" y="594"/>
      <point x="628" y="594" type="curve"/>
      <point x="1018" y="594"/>
      <point x="1130" y="774"/>
      <point x="1130" y="1008" type="curve" smooth="yes"/>
      <point x="1130" y="1242"/>
      <point x="996" y="1370"/>
      <point x="704" y="1370" type="curve"/>
      <point x="520" y="1370"/>
      <point x="372" y="1368"/>
      <point x="270" y="1368" type="curve"/>
      <point x="314" y="1308" type="line"/>
      <point x="700" y="1308" type="line" smooth="yes"/>
      <point x="838" y="1308"/>
      <point x="1066" y="1300"/>
      <point x="1066" y="1008" type="curve" smooth="yes"/>
      <point x="1066" y="732"/>
      <point x="900" y="656"/>
      <point x="626" y="656" type="curve" smooth="yes"/>
      <point x="326" y="656" type="line"/>
    </contour>
    <contour>
      <point x="270" y="0" type="curve"/>
      <point x="342" y="0" type="line"/>
      <point x="336" y="156"/>
      <point x="336" y="290"/>
      <point x="336" y="456" type="curve"/>
      <point x="336" y="906" type="line"/>
      <point x="336" y="1074"/>
      <point x="336" y="1208"/>
      <point x="340" y="1364" type="curve"/>
      <point x="270" y="1368" type="line"/>
      <point x="274" y="1214"/>
      <point x="274" y="1080"/>
      <point x="274" y="912" type="curve"/>
      <point x="274" y="456" type="line"/>
      <point x="274" y="290"/>
      <point x="274" y="156"/>
    </contour>
    <contour>
      <point x="76" y="968" type="line"/>
      <point x="192" y="972"/>
      <point x="302" y="972"/>
      <point x="396" y="972" type="curve"/>
      <point x="1006" y="972" type="line"/>
      <point x="1100" y="972"/>
      <point x="1210" y="972"/>
      <point x="1326" y="968" type="curve"/>
      <point x="1326" y="1032" type="line"/>
      <point x="1210" y="1028"/>
      <point x="1100" y="1028"/>
      <point x="1006" y="1028" type="curve"/>
      <point x="396" y="1028" type="line"/>
      <point x="302" y="1028"/>
      <point x="192" y="1028"/>
      <point x="76" y="1032" type="curve"/>
    </contour>
  </outline>
</glyph>
<glyph name="dong" format="2">
  <advance width="1120"/>
  <unicode hex="20AB"/>
  <outline>
    <contour>
      <point x="492" y="278" type="curve" smooth="yes"/>
      <point x="588" y="278"/>
      <point x="688" y="322"/>
      <point x="772" y="404" type="curve"/>
      <point x="784" y="404" type="line"/>
      <point x="788" y="292" type="line"/>
      <point x="846" y="292" type="line"/>
      <point x="840" y="412"/>
      <point x="840" y="516"/>
      <point x="840" y="646" type="curve"/>
      <point x="840" y="1084" type="line"/>
      <point x="840" y="1220"/>
      <point x="840" y="1346"/>
      <point x="844" y="1476" type="curve"/>
      <point x="772" y="1464" type="line"/>
      <point x="780" y="1348"/>
      <point x="780" y="1220"/>
      <point x="780" y="1084" type="curve"/>
      <point x="780" y="990" type="line"/>
      <point x="770" y="990" type="line"/>
      <point x="706" y="1042"/>
      <point x="614" y="1100"/>
      <point x="496" y="1100" type="curve" smooth="yes"/>
      <point x="264" y="1100"/>
      <point x="122" y="926"/>
      <point x="122" y="690" type="curve" smooth="yes"/>
      <point x="122" y="468"/>
      <point x="248" y="278"/>
    </contour>
    <contour>
      <point x="100" y="-4" type="line"/>
      <point x="216" y="0"/>
      <point x="326" y="0"/>
      <point x="420" y="0" type="curve"/>
      <point x="620" y="0" type="line"/>
      <point x="714" y="0"/>
      <point x="824" y="0"/>
      <point x="940" y="-4" type="curve"/>
      <point x="940" y="60" type="line"/>
      <point x="824" y="56"/>
      <point x="714" y="56"/>
      <point x="620" y="56" type="curve"/>
      <point x="420" y="56" type="line"/>
      <point x="326" y="56"/>
      <point x="216" y="56"/>
      <point x="100" y="60" type="curve"/>
    </contour>
    <contour>
      <point x="496" y="338" type="curve"/>
      <point x="274" y="340"/>
      <point x="184" y="508"/>
      <point x="184" y="690" type="curve" smooth="yes"/>
      <point x="184" y="882"/>
      <point x="282" y="1036"/>
      <point x="498" y="1038" type="curve"/>
      <point x="590" y="1036"/>
      <point x="700" y="994"/>
      <point x="780" y="904" type="curve"/>
      <point x="780" y="494" type="line"/>
      <point x="702" y="392"/>
      <point x="602" y="338"/>
    </contour>
    <contour>
      <point x="380" y="1276" type="line"/>
      <point x="496" y="1280"/>
      <point x="606" y="1280"/>
      <point x="700" y="1280" type="curve"/>
      <point x="740" y="1280" type="line"/>
      <point x="834" y="1280"/>
      <point x="944" y="1280"/>
      <point x="1060" y="1276" type="curve"/>
      <point x="1060" y="1340" type="line"/>
      <point x="944" y="1336"/>
      <point x="834" y="1336"/>
      <point x="740" y="1336" type="curve"/>
      <point x="700" y="1336" type="line"/>
      <point x="606" y="1336"/>
      <point x="496" y="1336"/>
      <point x="380" y="1340" type="curve"/>
    </contour>
  </outline>
</glyph>
<glyph name="euro" format="2">
  <advance width="1400"/>
  <unicode hex="20AC"/>
  <outline>
    <contour>
      <point x="886" y="-18" type="curve" smooth="yes"/>
      <point x="1018" y="-18"/>
      <point x="1172" y="18"/>
      <point x="1284" y="74" type="curve"/>
      <point x="1270" y="150" type="line"/>
      <point x="1154" y="82"/>
      <point x="1014" y="46"/>
      <point x="882" y="46" type="curve"/>
      <point x="486" y="50"/>
      <point x="292" y="332"/>
      <point x="292" y="688" type="curve" smooth="yes"/>
      <point x="292" y="1074"/>
      <point x="516" y="1324"/>
      <point x="858" y="1328" type="curve"/>
      <point x="934" y="1328"/>
      <point x="1092" y="1298"/>
      <point x="1280" y="1218" type="curve"/>
      <point x="1290" y="1292" type="line"/>
      <point x="1180" y="1334"/>
      <point x="1002" y="1392"/>
      <point x="860" y="1392" type="curve" smooth="yes"/>
      <point x="488" y="1392"/>
      <point x="228" y="1106"/>
      <point x="228" y="690" type="curve" smooth="yes"/>
      <point x="228" y="294"/>
      <point x="466" y="-18"/>
    </contour>
    <contour>
      <point x="62" y="514" type="line"/>
      <point x="178" y="518"/>
      <point x="288" y="518"/>
      <point x="382" y="518" type="curve"/>
      <point x="682" y="518" type="line"/>
      <point x="776" y="518"/>
      <point x="886" y="518"/>
      <point x="1002" y="514" type="curve"/>
      <point x="1002" y="578" type="line"/>
      <point x="886" y="574"/>
      <point x="776" y="574"/>
      <point x="682" y="574" type="curve"/>
      <point x="382" y="574" type="line"/>
      <point x="288" y="574"/>
      <point x="178" y="574"/>
      <point x="62" y="578" type="curve"/>
    </contour>
    <contour>
      <point x="62" y="774" type="line"/>
      <point x="178" y="778"/>
      <point x="288" y="778"/>
      <point x="382" y="778" type="curve"/>
      <point x="742" y="778" type="line"/>
      <point x="836" y="778"/>
      <point x="946" y="778"/>
      <point x="1062" y="774" type="curve"/>
      <point x="1062" y="838" type="line"/>
      <point x="946" y="834"/>
      <point x="836" y="834"/>
      <point x="742" y="834" type="curve"/>
      <point x="382" y="834" type="line"/>
      <point x="288" y="834"/>
      <point x="178" y="834"/>
      <point x="62" y="838" type="curve"/>
    </contour>
  </outline>
</glyph>
<glyph name="cedi" format="2">
  <advance width="1312"/>
  <unicode hex="20B5"/>
  <outline>
    <contour>
      <point x="708" y="-274" type="curve"/>
      <point x="776" y="-274" type="line"/>
      <point x="772" y="-38"/>
      <point x="772" y="168"/>
      <point x="772" y="384" type="curve"/>
      <point x="772" y="948" type="line"/>
      <point x="772" y="1164"/>
      <point x="772" y="1370"/>
      <point x="776" y="1606" type="curve"/>
      <point x="708" y="1606" type="line"/>
      <point x="712" y="1370"/>
      <point x="712" y="1164"/>
      <point x="712" y="948" type="curve"/>
      <point x="712" y="384" type="line"/>
      <point x="712" y="168"/>
      <point x="712" y="-38"/>
    </contour>
    <contour>
      <point x="798" y="-18" type="curve" smooth="yes"/>
      <point x="930" y="-18"/>
      <point x="1082" y="22"/>
      <point x="1194" y="86" type="curve"/>
      <point x="1182" y="164" type="line"/>
      <point x="1066" y="88"/>
      <point x="926" y="46"/>
      <point x="794" y="46" type="curve"/>
      <point x="396" y="50"/>
      <point x="184" y="332"/>
      <point x="184" y="688" type="curve" smooth="yes"/>
      <point x="184" y="1074"/>
      <point x="426" y="1324"/>
      <point x="770" y="1328" type="curve"/>
      <point x="846" y="1328"/>
      <point x="1006" y="1294"/>
      <point x="1194" y="1204" type="curve"/>
      <point x="1204" y="1278" type="line"/>
      <point x="1094" y="1326"/>
      <point x="914" y="1392"/>
      <point x="772" y="1392" type="curve" smooth="yes"/>
      <point x="400" y="1392"/>
      <point x="120" y="1106"/>
      <point x="120" y="690" type="curve" smooth="yes"/>
      <point x="120" y="294"/>
      <point x="378" y="-18"/>
    </contour>
  </outline>
</glyph>
<glyph name="liraTurkish" format="2">
  <advance width="1292"/>
  <unicode hex="20BA"/>
  <outline>
    <contour>
      <point x="306" y="0" type="curve"/>
      <point x="360" y="0" type="line"/>
      <point x="376" y="8" type="line"/>
      <point x="372" y="164"/>
      <point x="372" y="298"/>
      <point x="372" y="464" type="curve"/>
      <point x="372" y="912" type="line"/>
      <point x="372" y="1080"/>
      <point x="372" y="1214"/>
      <point x="378" y="1368" type="curve"/>
      <point x="306" y="1368" type="line"/>
      <point x="310" y="1214"/>
      <point x="310" y="1080"/>
      <point x="310" y="912" type="curve"/>
      <point x="310" y="456" type="line"/>
      <point x="310" y="290"/>
      <point x="310" y="156"/>
    </contour>
    <contour>
      <point x="360" y="0" type="line"/>
      <point x="576" y="0" type="line" smooth="yes"/>
      <point x="888" y="0"/>
      <point x="1076" y="148"/>
      <point x="1152" y="404" type="curve"/>
      <point x="1176" y="492"/>
      <point x="1188" y="594"/>
      <point x="1196" y="706" type="curve"/>
      <point x="1126" y="706" type="line"/>
      <point x="1126" y="602"/>
      <point x="1114" y="512"/>
      <point x="1098" y="432" type="curve"/>
      <point x="1030" y="186"/>
      <point x="858" y="60"/>
      <point x="578" y="60" type="curve" smooth="yes"/>
      <point x="360" y="60" type="line"/>
    </contour>
    <contour>
      <point x="158" y="422" type="line"/>
      <point x="264" y="474"/>
      <point x="362" y="518"/>
      <point x="452" y="558" type="curve"/>
      <point x="572" y="612" type="line"/>
      <point x="662" y="652"/>
      <point x="760" y="696"/>
      <point x="868" y="740" type="curve"/>
      <point x="844" y="800" type="line"/>
      <point x="738" y="748"/>
      <point x="640" y="704"/>
      <point x="554" y="666" type="curve"/>
      <point x="424" y="608" type="line"/>
      <point x="338" y="570"/>
      <point x="240" y="526"/>
      <point x="130" y="482" type="curve"/>
    </contour>
    <contour>
      <point x="158" y="702" type="line"/>
      <point x="264" y="754"/>
      <point x="362" y="798"/>
      <point x="452" y="838" type="curve"/>
      <point x="572" y="892" type="line"/>
      <point x="662" y="932"/>
      <point x="760" y="976"/>
      <point x="868" y="1020" type="curve"/>
      <point x="844" y="1080" type="line"/>
      <point x="738" y="1028"/>
      <point x="640" y="984"/>
      <point x="554" y="946" type="curve"/>
      <point x="424" y="888" type="line"/>
      <point x="338" y="850"/>
      <point x="240" y="806"/>
      <point x="130" y="762" type="curve"/>
    </contour>
  </outline>
</glyph>
<glyph name="literSign" format="2">
  <advance width="1084"/>
  <unicode hex="2113"/>
  <outline>
    <contour>
      <point x="716" y="-18" type="curve" smooth="yes"/>
      <point x="816" y="-18"/>
      <point x="906" y="26"/>
      <point x="966" y="54" type="curve"/>
      <point x="952" y="122" type="line"/>
      <point x="868" y="70"/>
      <point x="788" y="42"/>
      <point x="716" y="42" type="curve"/>
      <point x="474" y="44"/>
      <point x="402" y="230"/>
      <point x="402" y="538" type="curve" smooth="yes"/>
      <point x="402" y="832" type="line" smooth="yes"/>
      <point x="402" y="1200"/>
      <point x="510" y="1330"/>
      <point x="640" y="1332" type="curve" smooth="yes"/>
      <point x="756" y="1334"/>
      <point x="844" y="1244"/>
      <point x="844" y="1036" type="curve" smooth="yes"/>
      <point x="844" y="646"/>
      <point x="636" y="450"/>
      <point x="364" y="448" type="curve"/>
      <point x="282" y="448"/>
      <point x="182" y="476"/>
      <point x="80" y="528" type="curve"/>
      <point x="74" y="460" type="line"/>
      <point x="146" y="434"/>
      <point x="252" y="390"/>
      <point x="364" y="390" type="curve" smooth="yes"/>
      <point x="732" y="390"/>
      <point x="904" y="694"/>
      <point x="904" y="1038" type="curve" smooth="yes"/>
      <point x="904" y="1294"/>
      <point x="784" y="1392"/>
      <point x="640" y="1392" type="curve" smooth="yes"/>
      <point x="450" y="1392"/>
      <point x="342" y="1198"/>
      <point x="342" y="832" type="curve" smooth="yes"/>
      <point x="342" y="538" type="line" smooth="yes"/>
      <point x="342" y="192"/>
      <point x="438" y="-18"/>
    </contour>
  </outline>
</glyph>
<glyph name="trademark" format="2">
  <advance width="1704"/>
  <unicode hex="2122"/>
  <outline>
    <contour>
      <point x="756" y="620" type="curve"/>
      <point x="830" y="620" type="line"/>
      <point x="840" y="750"/>
      <point x="858" y="902"/>
      <point x="874" y="1034" type="curve"/>
      <point x="906" y="1298" type="line"/>
      <point x="912" y="1298" type="line"/>
      <point x="1030" y="1012" type="line"/>
      <point x="1082" y="886"/>
      <point x="1138" y="752"/>
      <point x="1186" y="620" type="curve"/>
      <point x="1242" y="620" type="line"/>
      <point x="1290" y="750"/>
      <point x="1344" y="882"/>
      <point x="1398" y="1012" type="curve"/>
      <point x="1516" y="1298" type="line"/>
      <point x="1522" y="1298" type="line"/>
      <point x="1554" y="1034" type="line"/>
      <point x="1570" y="902"/>
      <point x="1588" y="752"/>
      <point x="1596" y="620" type="curve"/>
      <point x="1670" y="620" type="line"/>
      <point x="1654" y="704"/>
      <point x="1642" y="802"/>
      <point x="1632" y="886" type="curve"/>
      <point x="1600" y="1150" type="line"/>
      <point x="1590" y="1234"/>
      <point x="1578" y="1334"/>
      <point x="1572" y="1418" type="curve"/>
      <point x="1498" y="1418" type="line"/>
      <point x="1452" y="1292"/>
      <point x="1406" y="1182"/>
      <point x="1360" y="1070" type="curve"/>
      <point x="1218" y="726" type="line"/>
      <point x="1212" y="726" type="line"/>
      <point x="1068" y="1072" type="line"/>
      <point x="1022" y="1182"/>
      <point x="972" y="1302"/>
      <point x="932" y="1418" type="curve"/>
      <point x="856" y="1418" type="line"/>
      <point x="848" y="1322"/>
      <point x="840" y="1244"/>
      <point x="828" y="1148" type="curve"/>
      <point x="796" y="890" type="line"/>
      <point x="784" y="794"/>
      <point x="774" y="716"/>
    </contour>
    <contour>
      <point x="324" y="620" type="curve"/>
      <point x="398" y="620" type="line"/>
      <point x="394" y="710"/>
      <point x="392" y="788"/>
      <point x="392" y="886" type="curve"/>
      <point x="392" y="1144" type="line"/>
      <point x="392" y="1242"/>
      <point x="394" y="1320"/>
      <point x="398" y="1410" type="curve"/>
      <point x="398" y="1418" type="line"/>
      <point x="324" y="1418" type="line"/>
      <point x="324" y="1410" type="line"/>
      <point x="328" y="1320"/>
      <point x="330" y="1242"/>
      <point x="330" y="1144" type="curve"/>
      <point x="330" y="886" type="line"/>
      <point x="330" y="788"/>
      <point x="328" y="710"/>
    </contour>
    <contour>
      <point x="40" y="1354" type="line"/>
      <point x="116" y="1358"/>
      <point x="184" y="1360"/>
      <point x="266" y="1360" type="curve"/>
      <point x="340" y="1360" type="line"/>
      <point x="340" y="1418" type="line"/>
      <point x="40" y="1418" type="line"/>
    </contour>
    <contour>
      <point x="382" y="1360" type="line"/>
      <point x="454" y="1360" type="line"/>
      <point x="558" y="1360"/>
      <point x="622" y="1358"/>
      <point x="680" y="1354" type="curve"/>
      <point x="680" y="1418" type="line"/>
      <point x="382" y="1418" type="line"/>
    </contour>
  </outline>
</glyph>
<glyph name="Ohm" format="2">
  <advance width="1590"/>
  <unicode hex="2126"/>
  <outline>
    <contour>
      <point x="80" y="0" type="line"/>
      <point x="638" y="0" type="line"/>
      <point x="634" y="134"/>
      <point x="634" y="246"/>
      <point x="634" y="390" type="curve"/>
      <point x="338" y="524"/>
      <point x="218" y="702"/>
      <point x="218" y="908" type="curve" smooth="yes"/>
      <point x="218" y="1178"/>
      <point x="402" y="1376"/>
      <point x="798" y="1384" type="curve"/>
      <point x="1180" y="1376"/>
      <point x="1372" y="1194"/>
      <point x="1372" y="908" type="curve" smooth="yes"/>
      <point x="1372" y="704"/>
      <point x="1254" y="524"/>
      <point x="956" y="390" type="curve"/>
      <point x="956" y="246"/>
      <point x="956" y="134"/>
      <point x="952" y="0" type="curve"/>
      <point x="1510" y="0" type="line"/>
      <point x="1510" y="70" type="line"/>
      <point x="1398" y="62"/>
      <point x="1304" y="62"/>
      <point x="1140" y="62" type="curve"/>
      <point x="988" y="62" type="line"/>
      <point x="1024" y="32" type="line"/>
      <point x="1020" y="156"/>
      <point x="1020" y="258"/>
      <point x="1020" y="390" type="curve"/>
      <point x="968" y="324" type="line"/>
      <point x="1268" y="464"/>
      <point x="1438" y="648"/>
      <point x="1438" y="906" type="curve" smooth="yes"/>
      <point x="1438" y="1216"/>
      <point x="1206" y="1450"/>
      <point x="798" y="1450" type="curve" smooth="yes"/>
      <point x="396" y="1450"/>
      <point x="152" y="1222"/>
      <point x="152" y="906" type="curve" smooth="yes"/>
      <point x="152" y="664"/>
      <point x="308" y="468"/>
      <point x="622" y="324" type="curve"/>
      <point x="570" y="390" type="line"/>
      <point x="570" y="258"/>
      <point x="570" y="156"/>
      <point x="566" y="32" type="curve"/>
      <point x="602" y="62" type="line"/>
      <point x="450" y="62" type="line"/>
      <point x="286" y="62"/>
      <point x="192" y="62"/>
      <point x="80" y="70" type="curve"/>
    </contour>
  </outline>
</glyph>
<glyph name="increment" format="2">
  <advance width="1352"/>
  <unicode hex="2206"/>
  <outline>
    <contour>
      <point x="80" y="0" type="line"/>
      <point x="152" y="0" type="line"/>
      <point x="152" y="44" type="line"/>
      <point x="214" y="210"/>
      <point x="286" y="390"/>
      <point x="350" y="550" type="curve"/>
      <point x="674" y="1354" type="line"/>
      <point x="686" y="1354" type="line"/>
      <point x="1008" y="544" type="line"/>
      <point x="1068" y="392"/>
      <point x="1138" y="210"/>
      <point x="1200" y="44" type="curve"/>
      <point x="1200" y="0" type="line"/>
      <point x="1272" y="0" type="line"/>
      <point x="1272" y="60" type="line"/>
      <point x="1218" y="188"/>
      <point x="1158" y="338"/>
      <point x="1102" y="480" type="curve"/>
      <point x="906" y="974" type="line"/>
      <point x="836" y="1150"/>
      <point x="786" y="1280"/>
      <point x="734" y="1426" type="curve"/>
      <point x="626" y="1426" type="line"/>
      <point x="576" y="1286"/>
      <point x="522" y="1148"/>
      <point x="452" y="974" type="curve"/>
      <point x="254" y="482" type="line"/>
      <point x="198" y="344"/>
      <point x="134" y="190"/>
      <point x="80" y="58" type="curve"/>
    </contour>
    <contour>
      <point x="112" y="0" type="line"/>
      <point x="1246" y="0" type="line"/>
      <point x="1246" y="62" type="line"/>
      <point x="112" y="62" type="line"/>
    </contour>
  </outline>
</glyph>
<glyph name="divisionslash" format="2">
  <advance width="724"/>
  <unicode hex="2215"/>
  <outline>
    <contour>
      <point x="76" y="0" type="curve"/>
      <point x="148" y="0" type="line"/>
      <point x="196" y="148"/>
      <point x="240" y="274"/>
      <point x="304" y="456" type="curve"/>
      <point x="476" y="948" type="line"/>
      <point x="544" y="1142"/>
      <point x="590" y="1272"/>
      <point x="648" y="1426" type="curve"/>
      <point x="576" y="1426" type="line"/>
      <point x="524" y="1272"/>
      <point x="480" y="1142"/>
      <point x="412" y="948" type="curve"/>
      <point x="240" y="456" type="line"/>
      <point x="176" y="274"/>
      <point x="128" y="148"/>
    </contour>
  </outline>
</glyph>
<glyph name="infinity" format="2">
  <advance width="1796"/>
  <unicode hex="221E"/>
  <outline>
    <contour>
      <point x="1316" y="172" type="curve" smooth="yes"/>
      <point x="1558" y="172"/>
      <point x="1672" y="372"/>
      <point x="1672" y="590" type="curve" smooth="yes"/>
      <point x="1672" y="822"/>
      <point x="1542" y="1008"/>
      <point x="1312" y="1008" type="curve" smooth="yes"/>
      <point x="1138" y="1008"/>
      <point x="964" y="838"/>
      <point x="872" y="610" type="curve"/>
      <point x="872" y="570" type="line"/>
      <point x="964" y="336"/>
      <point x="1136" y="172"/>
    </contour>
    <contour>
      <point x="480" y="172" type="curve" smooth="yes"/>
      <point x="660" y="172"/>
      <point x="832" y="336"/>
      <point x="924" y="570" type="curve"/>
      <point x="924" y="610" type="line"/>
      <point x="832" y="838"/>
      <point x="658" y="1008"/>
      <point x="484" y="1008" type="curve" smooth="yes"/>
      <point x="254" y="1008"/>
      <point x="124" y="822"/>
      <point x="124" y="590" type="curve" smooth="yes"/>
      <point x="124" y="372"/>
      <point x="238" y="172"/>
    </contour>
    <contour>
      <point x="482" y="234" type="curve"/>
      <point x="300" y="240"/>
      <point x="186" y="362"/>
      <point x="186" y="590" type="curve" smooth="yes"/>
      <point x="186" y="816"/>
      <point x="304" y="940"/>
      <point x="484" y="946" type="curve"/>
      <point x="626" y="942"/>
      <point x="782" y="800"/>
      <point x="864" y="590" type="curve"/>
      <point x="784" y="376"/>
      <point x="630" y="238"/>
    </contour>
    <contour>
      <point x="1314" y="234" type="curve"/>
      <point x="1166" y="238"/>
      <point x="1012" y="376"/>
      <point x="932" y="590" type="curve"/>
      <point x="1014" y="800"/>
      <point x="1170" y="942"/>
      <point x="1312" y="946" type="curve"/>
      <point x="1492" y="940"/>
      <point x="1610" y="816"/>
      <point x="1610" y="590" type="curve" smooth="yes"/>
      <point x="1610" y="362"/>
      <point x="1496" y="240"/>
    </contour>
  </outline>
</glyph>
<glyph name="lessequal" format="2">
  <advance width="1120"/>
  <unicode hex="2264"/>
  <outline>
    <contour>
      <point x="980" y="320" type="curve"/>
      <point x="980" y="398" type="line"/>
      <point x="820" y="462"/>
      <point x="650" y="538"/>
      <point x="486" y="612" type="curve"/>
      <point x="224" y="730" type="line"/>
      <point x="224" y="742" type="line"/>
      <point x="486" y="860" type="line"/>
      <point x="650" y="934"/>
      <point x="820" y="1010"/>
      <point x="980" y="1074" type="curve"/>
      <point x="980" y="1152" type="line"/>
      <point x="866" y="1098"/>
      <point x="754" y="1046"/>
      <point x="658" y="1002" type="curve"/>
      <point x="458" y="912" type="line"/>
      <point x="366" y="870"/>
      <point x="254" y="820"/>
      <point x="140" y="772" type="curve"/>
      <point x="140" y="700" type="line"/>
      <point x="254" y="652"/>
      <point x="366" y="602"/>
      <point x="458" y="560" type="curve"/>
      <point x="658" y="470" type="line"/>
      <point x="754" y="426"/>
      <point x="866" y="374"/>
    </contour>
    <contour>
      <point x="140" y="-4" type="line"/>
      <point x="256" y="0"/>
      <point x="366" y="0"/>
      <point x="460" y="0" type="curve"/>
      <point x="660" y="0" type="line"/>
      <point x="754" y="0"/>
      <point x="864" y="0"/>
      <point x="980" y="-4" type="curve"/>
      <point x="980" y="64" type="line"/>
      <point x="864" y="60"/>
      <point x="754" y="60"/>
      <point x="660" y="60" type="curve"/>
      <point x="460" y="60" type="line"/>
      <point x="366" y="60"/>
      <point x="256" y="60"/>
      <point x="140" y="64" type="curve"/>
    </contour>
  </outline>
</glyph>
<glyph name="greaterequal" format="2">
  <advance width="1120"/>
  <unicode hex="2265"/>
  <outline>
    <contour>
      <point x="140" y="-4" type="line"/>
      <point x="256" y="0"/>
      <point x="366" y="0"/>
      <point x="460" y="0" type="curve"/>
      <point x="660" y="0" type="line"/>
      <point x="754" y="0"/>
      <point x="864" y="0"/>
      <point x="980" y="-4" type="curve"/>
      <point x="980" y="64" type="line"/>
      <point x="864" y="60"/>
      <point x="754" y="60"/>
      <point x="660" y="60" type="curve"/>
      <point x="460" y="60" type="line"/>
      <point x="366" y="60"/>
      <point x="256" y="60"/>
      <point x="140" y="64" type="curve"/>
    </contour>
    <contour>
      <point x="140" y="320" type="line"/>
      <point x="254" y="374"/>
      <point x="366" y="426"/>
      <point x="462" y="470" type="curve"/>
      <point x="662" y="560" type="line"/>
      <point x="754" y="602"/>
      <point x="866" y="652"/>
      <point x="980" y="700" type="curve"/>
      <point x="980" y="772" type="line"/>
      <point x="866" y="820"/>
      <point x="754" y="870"/>
      <point x="662" y="912" type="curve"/>
      <point x="462" y="1002" type="line"/>
      <point x="366" y="1046"/>
      <point x="254" y="1098"/>
      <point x="140" y="1152" type="curve"/>
      <point x="140" y="1074" type="line"/>
      <point x="300" y="1010"/>
      <point x="470" y="934"/>
      <point x="634" y="860" type="curve"/>
      <point x="896" y="742" type="line"/>
      <point x="896" y="730" type="line"/>
      <point x="634" y="612" type="line"/>
      <point x="470" y="538"/>
      <point x="300" y="462"/>
      <point x="140" y="398" type="curve"/>
    </contour>
  </outline>
</glyph>
<glyph name="_Q_tail" format="2">
  <advance width="1536"/>
  <anchor x="768" y="0" name="_bottom"/>
  <outline>
    <contour>
      <point x="1302" y="-330" type="curve"/>
      <point x="1372" y="-288" type="line"/>
      <point x="1262" y="-212"/>
      <point x="1182" y="-152"/>
      <point x="1100" y="-90" type="curve"/>
      <point x="912" y="54" type="line"/>
      <point x="874" y="8" type="line"/>
      <point x="1044" y="-124" type="line"/>
      <point x="1132" y="-194"/>
      <point x="1220" y="-264"/>
    </contour>
  </outline>
</glyph>
<glyph name="_exclam" format="2">
  <advance width="428"/>
  <outline>
    <contour>
      <point x="190" y="468" type="curve"/>
      <point x="242" y="470" type="line"/>
      <point x="242" y="806"/>
      <point x="252" y="1140"/>
      <point x="268" y="1468" type="curve"/>
      <point x="164" y="1464" type="line"/>
      <point x="180" y="1136"/>
      <point x="190" y="806"/>
    </contour>
  </outline>
</glyph>
<glyph name="_question" format="2">
  <advance width="800"/>
  <outline>
    <contour>
      <point x="398" y="420" type="curve" smooth="yes"/>
      <point x="442" y="420"/>
      <point x="498" y="428"/>
      <point x="534" y="436" type="curve"/>
      <point x="528" y="500" type="line"/>
      <point x="494" y="490"/>
      <point x="436" y="476"/>
      <point x="398" y="476" type="curve"/>
      <point x="306" y="478"/>
      <point x="228" y="512"/>
      <point x="228" y="620" type="curve" smooth="yes"/>
      <point x="228" y="716"/>
      <point x="318" y="784"/>
      <point x="418" y="858" type="curve" smooth="yes"/>
      <point x="540" y="948"/>
      <point x="676" y="1052"/>
      <point x="676" y="1228" type="curve" smooth="yes"/>
      <point x="676" y="1402"/>
      <point x="542" y="1498"/>
      <point x="358" y="1498" type="curve" smooth="yes"/>
      <point x="268" y="1498"/>
      <point x="142" y="1456"/>
      <point x="66" y="1428" type="curve"/>
      <point x="72" y="1358" type="line"/>
      <point x="192" y="1412"/>
      <point x="304" y="1434"/>
      <point x="360" y="1434" type="curve"/>
      <point x="518" y="1432"/>
      <point x="614" y="1364"/>
      <point x="614" y="1230" type="curve" smooth="yes"/>
      <point x="614" y="1080"/>
      <point x="494" y="988"/>
      <point x="378" y="902" type="curve" smooth="yes"/>
      <point x="270" y="822"/>
      <point x="166" y="744"/>
      <point x="166" y="620" type="curve" smooth="yes"/>
      <point x="166" y="498"/>
      <point x="262" y="420"/>
    </contour>
  </outline>
</glyph>
<glyph name="_slash.Lslash" format="2">
  <advance width="1152"/>
  <anchor x="574" y="714" name="_center"/>
  <outline>
    <contour>
      <point x="20" y="586" type="line"/>
      <point x="144" y="626"/>
      <point x="256" y="660"/>
      <point x="356" y="690" type="curve"/>
      <point x="450" y="718" type="line"/>
      <point x="550" y="748"/>
      <point x="664" y="782"/>
      <point x="788" y="814" type="curve"/>
      <point x="768" y="880" type="line"/>
      <point x="646" y="840"/>
      <point x="534" y="806"/>
      <point x="432" y="776" type="curve"/>
      <point x="340" y="748" type="line"/>
      <point x="238" y="718"/>
      <point x="126" y="686"/>
      <point x="0" y="652" type="curve"/>
    </contour>
  </outline>
</glyph>
<glyph name="_strokeshortcomb.Tbar" format="2">
  <advance width="1478"/>
  <anchor x="740" y="714" name="_center"/>
  <outline>
    <contour>
      <point x="360" y="658" type="line"/>
      <point x="482" y="662"/>
      <point x="596" y="662"/>
      <point x="694" y="662" type="curve"/>
      <point x="786" y="662" type="line"/>
      <point x="884" y="662"/>
      <point x="998" y="662"/>
      <point x="1120" y="658" type="curve"/>
      <point x="1120" y="726" type="line"/>
      <point x="998" y="722"/>
      <point x="884" y="722"/>
      <point x="786" y="722" type="curve"/>
      <point x="694" y="722" type="line"/>
      <point x="596" y="722"/>
      <point x="482" y="722"/>
      <point x="360" y="726" type="curve"/>
    </contour>
  </outline>
</glyph>
<glyph name="brevecomb.narrow" format="2">
  <anchor x="600" y="988" name="_top"/>
  <anchor x="598" y="1366" name="top"/>
  <outline>
    <contour>
      <point x="598" y="1170" type="curve" smooth="yes"/>
      <point x="764" y="1170"/>
      <point x="858" y="1296"/>
      <point x="858" y="1516" type="curve"/>
      <point x="802" y="1516" type="line"/>
      <point x="802" y="1312"/>
      <point x="728" y="1236"/>
      <point x="598" y="1232" type="curve"/>
      <point x="474" y="1236"/>
      <point x="396" y="1306"/>
      <point x="396" y="1518" type="curve"/>
      <point x="340" y="1516" type="line"/>
      <point x="340" y="1298"/>
      <point x="434" y="1170"/>
    </contour>
  </outline>
</glyph>
<glyph name="brevecomb_acutecomb.case" format="2">
  <anchor x="597" y="988" name="_top"/>
  <outline>
    <contour>
      <point x="596" y="1150" type="curve" smooth="yes"/>
      <point x="780" y="1150"/>
      <point x="882" y="1276"/>
      <point x="882" y="1436" type="curve"/>
      <point x="824" y="1436" type="line"/>
      <point x="824" y="1292"/>
      <point x="742" y="1216"/>
      <point x="596" y="1212" type="curve"/>
      <point x="452" y="1216"/>
      <point x="370" y="1292"/>
      <point x="370" y="1438" type="curve"/>
      <point x="312" y="1436" type="line"/>
      <point x="312" y="1276"/>
      <point x="416" y="1150"/>
    </contour>
    <contour>
      <point x="486" y="1448" type="curve"/>
      <point x="552" y="1450" type="line"/>
      <point x="658" y="1566"/>
      <point x="762" y="1680"/>
      <point x="862" y="1798" type="curve"/>
      <point x="770" y="1798" type="line"/>
      <point x="680" y="1680"/>
      <point x="584" y="1564"/>
    </contour>
  </outline>
</glyph>
<glyph name="brevecomb_hookabovecomb.case" format="2">
  <anchor x="597" y="988" name="_top"/>
  <outline>
    <contour>
      <point x="596" y="1150" type="curve" smooth="yes"/>
      <point x="780" y="1150"/>
      <point x="882" y="1276"/>
      <point x="882" y="1436" type="curve"/>
      <point x="824" y="1436" type="line"/>
      <point x="824" y="1292"/>
      <point x="742" y="1216"/>
      <point x="596" y="1212" type="curve"/>
      <point x="452" y="1216"/>
      <point x="370" y="1292"/>
      <point x="370" y="1438" type="curve"/>
      <point x="312" y="1436" type="line"/>
      <point x="312" y="1276"/>
      <point x="416" y="1150"/>
    </contour>
    <contour>
      <point x="556" y="1408" type="line"/>
      <point x="616" y="1408" type="line"/>
      <point x="616" y="1478" type="line"/>
      <point x="688" y="1488"/>
      <point x="792" y="1542"/>
      <point x="792" y="1654" type="curve" smooth="yes"/>
      <point x="792" y="1758"/>
      <point x="698" y="1808"/>
      <point x="604" y="1808" type="curve" smooth="yes"/>
      <point x="546" y="1808"/>
      <point x="470" y="1778"/>
      <point x="420" y="1762" type="curve"/>
      <point x="426" y="1694" type="line"/>
      <point x="494" y="1726"/>
      <point x="568" y="1746"/>
      <point x="602" y="1746" type="curve"/>
      <point x="670" y="1744"/>
      <point x="730" y="1722"/>
      <point x="730" y="1654" type="curve" smooth="yes"/>
      <point x="730" y="1580"/>
      <point x="656" y="1528"/>
      <point x="556" y="1514" type="curve"/>
    </contour>
  </outline>
</glyph>
<glyph name="caroncomb.alt" format="2">
  <anchor x="600" y="988" name="_topright"/>
  <outline>
    <contour>
      <point x="670" y="1086" type="curve"/>
      <point x="726" y="1088" type="line"/>
      <point x="768" y="1178"/>
      <point x="810" y="1346"/>
      <point x="810" y="1466" type="curve" smooth="yes"/>
      <point x="810" y="1510"/>
      <point x="802" y="1530"/>
      <point x="772" y="1532" type="curve"/>
      <point x="738" y="1530" type="line"/>
      <point x="742" y="1486"/>
      <point x="742" y="1442"/>
      <point x="742" y="1396" type="curve"/>
      <point x="742" y="1330"/>
      <point x="716" y="1190"/>
    </contour>
  </outline>
</glyph>
<glyph name="cent.BRACKET.140" format="2">
  <advance width="1004"/>
  <anchor x="580" y="0" name="bottom"/>
  <anchor x="562" y="988" name="top"/>
  <outline>
    <contour>
      <point x="522" y="-274" type="curve"/>
      <point x="588" y="-274" type="line"/>
      <point x="586" y="-172"/>
      <point x="584" y="-76"/>
      <point x="584" y="18" type="curve"/>
      <point x="526" y="18" type="line"/>
      <point x="526" y="-76"/>
      <point x="524" y="-172"/>
    </contour>
    <contour>
      <point x="526" y="964" type="curve"/>
      <point x="584" y="964" type="line"/>
      <point x="584" y="1056"/>
      <point x="586" y="1148"/>
      <point x="588" y="1246" type="curve"/>
      <point x="522" y="1246" type="line"/>
      <point x="524" y="1148"/>
      <point x="526" y="1056"/>
    </contour>
    <contour>
      <point x="608" y="-18" type="curve" smooth="yes"/>
      <point x="724" y="-18"/>
      <point x="828" y="26"/>
      <point x="898" y="54" type="curve"/>
      <point x="884" y="126" type="line"/>
      <point x="786" y="74"/>
      <point x="692" y="46"/>
      <point x="608" y="46" type="curve"/>
      <point x="324" y="52"/>
      <point x="186" y="244"/>
      <point x="186" y="496" type="curve" smooth="yes"/>
      <point x="186" y="770"/>
      <point x="346" y="938"/>
      <point x="592" y="944" type="curve"/>
      <point x="644" y="944"/>
      <point x="754" y="920"/>
      <point x="882" y="862" type="curve"/>
      <point x="888" y="934" type="line"/>
      <point x="812" y="964"/>
      <point x="688" y="1008"/>
      <point x="590" y="1008" type="curve" smooth="yes"/>
      <point x="300" y="1008"/>
      <point x="124" y="786"/>
      <point x="124" y="496" type="curve" smooth="yes"/>
      <point x="124" y="208"/>
      <point x="298" y="-18"/>
    </contour>
  </outline>
</glyph>
<glyph name="circumflexcomb_acutecomb.case" format="2">
  <anchor x="600" y="988" name="_top"/>
  <outline>
    <contour>
      <point x="800" y="1420" type="curve"/>
      <point x="866" y="1422" type="line"/>
      <point x="972" y="1538"/>
      <point x="1076" y="1652"/>
      <point x="1176" y="1770" type="curve"/>
      <point x="1084" y="1770" type="line"/>
      <point x="994" y="1652"/>
      <point x="898" y="1536"/>
    </contour>
    <contour>
      <point x="266" y="1154" type="curve"/>
      <point x="332" y="1154" type="line"/>
      <point x="438" y="1270"/>
      <point x="538" y="1384"/>
      <point x="638" y="1500" type="curve"/>
      <point x="550" y="1500" type="line"/>
      <point x="458" y="1384"/>
      <point x="364" y="1270"/>
    </contour>
    <contour>
      <point x="862" y="1150" type="curve"/>
      <point x="928" y="1152" type="line"/>
      <point x="830" y="1268"/>
      <point x="736" y="1384"/>
      <point x="644" y="1500" type="curve"/>
      <point x="556" y="1500" type="line"/>
      <point x="654" y="1384"/>
      <point x="758" y="1266"/>
    </contour>
  </outline>
</glyph>
<glyph name="circumflexcomb_gravecomb" format="2">
  <anchor x="597" y="988" name="_top"/>
  <outline>
    <contour>
      <point x="932" y="1480" type="curve"/>
      <point x="998" y="1482" type="line"/>
      <point x="900" y="1610"/>
      <point x="804" y="1738"/>
      <point x="714" y="1866" type="curve"/>
      <point x="622" y="1864" type="line"/>
      <point x="722" y="1734"/>
      <point x="826" y="1608"/>
    </contour>
    <contour>
      <point x="266" y="1174" type="curve"/>
      <point x="332" y="1174" type="line"/>
      <point x="438" y="1302"/>
      <point x="538" y="1428"/>
      <point x="638" y="1554" type="curve"/>
      <point x="550" y="1554" type="line"/>
      <point x="458" y="1428"/>
      <point x="364" y="1302"/>
    </contour>
    <contour>
      <point x="862" y="1170" type="curve"/>
      <point x="928" y="1172" type="line"/>
      <point x="830" y="1300"/>
      <point x="736" y="1428"/>
      <point x="644" y="1554" type="curve"/>
      <point x="556" y="1554" type="line"/>
      <point x="654" y="1428"/>
      <point x="758" y="1298"/>
    </contour>
  </outline>
</glyph>
<glyph name="circumflexcomb_hookabovecomb.case" format="2">
  <anchor x="600" y="988" name="_top"/>
  <outline>
    <contour>
      <point x="266" y="1154" type="curve"/>
      <point x="332" y="1154" type="line"/>
      <point x="438" y="1270"/>
      <point x="538" y="1384"/>
      <point x="638" y="1500" type="curve"/>
      <point x="550" y="1500" type="line"/>
      <point x="458" y="1384"/>
      <point x="364" y="1270"/>
    </contour>
    <contour>
      <point x="862" y="1150" type="curve"/>
      <point x="928" y="1152" type="line"/>
      <point x="830" y="1268"/>
      <point x="736" y="1384"/>
      <point x="644" y="1500" type="curve"/>
      <point x="556" y="1500" type="line"/>
      <point x="654" y="1384"/>
      <point x="758" y="1266"/>
    </contour>
    <contour>
      <point x="846" y="1408" type="line"/>
      <point x="906" y="1408" type="line"/>
      <point x="906" y="1478" type="line"/>
      <point x="978" y="1488"/>
      <point x="1082" y="1542"/>
      <point x="1082" y="1654" type="curve" smooth="yes"/>
      <point x="1082" y="1758"/>
      <point x="988" y="1808"/>
      <point x="894" y="1808" type="curve" smooth="yes"/>
      <point x="836" y="1808"/>
      <point x="760" y="1778"/>
      <point x="710" y="1762" type="curve"/>
      <point x="716" y="1694" type="line"/>
      <point x="784" y="1726"/>
      <point x="858" y="1746"/>
      <point x="892" y="1746" type="curve"/>
      <point x="960" y="1744"/>
      <point x="1020" y="1722"/>
      <point x="1020" y="1654" type="curve" smooth="yes"/>
      <point x="1020" y="1580"/>
      <point x="946" y="1528"/>
      <point x="846" y="1514" type="curve"/>
    </contour>
  </outline>
</glyph>
<glyph name="circumflexcomb_hookabovecomb" format="2">
  <anchor x="597" y="988" name="_top"/>
  <outline>
    <contour>
      <point x="862" y="1170" type="curve"/>
      <point x="928" y="1172" type="line"/>
      <point x="830" y="1300"/>
      <point x="736" y="1428"/>
      <point x="644" y="1554" type="curve"/>
      <point x="556" y="1554" type="line"/>
      <point x="654" y="1428"/>
      <point x="758" y="1298"/>
    </contour>
    <contour>
      <point x="266" y="1174" type="curve"/>
      <point x="332" y="1174" type="line"/>
      <point x="438" y="1302"/>
      <point x="538" y="1428"/>
      <point x="638" y="1554" type="curve"/>
      <point x="550" y="1554" type="line"/>
      <point x="458" y="1428"/>
      <point x="364" y="1302"/>
    </contour>
    <contour>
      <point x="846" y="1480" type="line"/>
      <point x="906" y="1480" type="line"/>
      <point x="906" y="1550" type="line"/>
      <point x="978" y="1580"/>
      <point x="1082" y="1634"/>
      <point x="1082" y="1746" type="curve" smooth="yes"/>
      <point x="1082" y="1850"/>
      <point x="988" y="1900"/>
      <point x="894" y="1900" type="curve" smooth="yes"/>
      <point x="836" y="1900"/>
      <point x="760" y="1870"/>
      <point x="710" y="1854" type="curve"/>
      <point x="716" y="1786" type="line"/>
      <point x="784" y="1818"/>
      <point x="858" y="1838"/>
      <point x="892" y="1838" type="curve"/>
      <point x="960" y="1836"/>
      <point x="1020" y="1814"/>
      <point x="1020" y="1746" type="curve" smooth="yes"/>
      <point x="1020" y="1672"/>
      <point x="946" y="1620"/>
      <point x="846" y="1586" type="curve"/>
    </contour>
  </outline>
</glyph>
<glyph name="dblgravecomb.case" format="2">
  <anchor x="600" y="988" name="_top"/>
  <anchor x="598" y="1432" name="top"/>
  <outline>
    <contour>
      <point x="444" y="1152" type="curve"/>
      <point x="510" y="1154" type="line"/>
      <point x="412" y="1270"/>
      <point x="316" y="1386"/>
      <point x="226" y="1502" type="curve"/>
      <point x="134" y="1502" type="line"/>
      <point x="234" y="1382"/>
      <point x="338" y="1268"/>
    </contour>
    <contour>
      <point x="778" y="1152" type="curve"/>
      <point x="838" y="1154" type="line"/>
      <point x="752" y="1270"/>
      <point x="670" y="1386"/>
      <point x="594" y="1502" type="curve"/>
      <point x="508" y="1502" type="line"/>
      <point x="594" y="1382"/>
      <point x="684" y="1268"/>
    </contour>
  </outline>
</glyph>
<glyph name="dollar.BRACKET.140" format="2">
  <advance width="1104"/>
  <outline>
    <contour>
      <point x="580" y="-18" type="curve" smooth="yes"/>
      <point x="876" y="-18"/>
      <point x="1008" y="154"/>
      <point x="1008" y="354" type="curve" smooth="yes"/>
      <point x="1008" y="530"/>
      <point x="906" y="626"/>
      <point x="578" y="736" type="curve" smooth="yes"/>
      <point x="310" y="826"/>
      <point x="196" y="886"/>
      <point x="196" y="1046" type="curve" smooth="yes"/>
      <point x="196" y="1246"/>
      <point x="362" y="1324"/>
      <point x="542" y="1328" type="curve"/>
      <point x="612" y="1328"/>
      <point x="750" y="1294"/>
      <point x="910" y="1214" type="curve"/>
      <point x="924" y="1286" type="line"/>
      <point x="824" y="1328"/>
      <point x="674" y="1392"/>
      <point x="548" y="1392" type="curve" smooth="yes"/>
      <point x="280" y="1392"/>
      <point x="132" y="1238"/>
      <point x="132" y="1046" type="curve" smooth="yes"/>
      <point x="132" y="850"/>
      <point x="284" y="768"/>
      <point x="552" y="680" type="curve" smooth="yes"/>
      <point x="796" y="600"/>
      <point x="944" y="532"/>
      <point x="944" y="356" type="curve" smooth="yes"/>
      <point x="944" y="128"/>
      <point x="780" y="50"/>
      <point x="580" y="46" type="curve"/>
      <point x="452" y="46"/>
      <point x="308" y="92"/>
      <point x="158" y="162" type="curve"/>
      <point x="148" y="88" type="line"/>
      <point x="250" y="48"/>
      <point x="406" y="-18"/>
    </contour>
    <contour>
      <point x="528" y="-274" type="curve"/>
      <point x="596" y="-274" type="line"/>
      <point x="594" y="-172"/>
      <point x="592" y="-76"/>
      <point x="592" y="18" type="curve"/>
      <point x="532" y="18" type="line"/>
      <point x="532" y="-76"/>
      <point x="530" y="-172"/>
    </contour>
    <contour>
      <point x="532" y="1350" type="curve"/>
      <point x="592" y="1350" type="line"/>
      <point x="592" y="1432"/>
      <point x="594" y="1518"/>
      <point x="596" y="1606" type="curve"/>
      <point x="528" y="1606" type="line"/>
      <point x="530" y="1518"/>
      <point x="532" y="1432"/>
    </contour>
  </outline>
</glyph>
<glyph name="five.dnom" format="2">
  <advance width="814"/>
  <outline>
    <contour>
      <point x="390" y="-12" type="curve" smooth="yes"/>
      <point x="604" y="-12"/>
      <point x="724" y="110"/>
      <point x="724" y="292" type="curve" smooth="yes"/>
      <point x="724" y="488"/>
      <point x="582" y="586"/>
      <point x="416" y="586" type="curve" smooth="yes"/>
      <point x="334" y="586"/>
      <point x="260" y="558"/>
      <point x="206" y="528" type="curve"/>
      <point x="198" y="528" type="line"/>
      <point x="198" y="598" type="line"/>
      <point x="198" y="692"/>
      <point x="198" y="788"/>
      <point x="202" y="884" type="curve"/>
      <point x="176" y="860" type="line"/>
      <point x="320" y="860" type="line"/>
      <point x="432" y="860"/>
      <point x="548" y="860"/>
      <point x="664" y="856" type="curve"/>
      <point x="664" y="918" type="line"/>
      <point x="136" y="918" type="line"/>
      <point x="140" y="820"/>
      <point x="140" y="710"/>
      <point x="140" y="594" type="curve"/>
      <point x="140" y="456" type="line"/>
      <point x="170" y="454" type="line"/>
      <point x="254" y="510"/>
      <point x="342" y="526"/>
      <point x="404" y="526" type="curve"/>
      <point x="550" y="524"/>
      <point x="662" y="464"/>
      <point x="662" y="292" type="curve" smooth="yes"/>
      <point x="662" y="138"/>
      <point x="574" y="50"/>
      <point x="388" y="48" type="curve"/>
      <point x="298" y="48"/>
      <point x="194" y="84"/>
      <point x="86" y="136" type="curve"/>
      <point x="76" y="66" type="line"/>
      <point x="150" y="38"/>
      <point x="262" y="-12"/>
    </contour>
  </outline>
</glyph>
<glyph name="macroncomb.case" format="2">
  <anchor x="600" y="988" name="_top"/>
  <anchor x="600" y="1316" name="top"/>
  <outline>
    <contour>
      <point x="308" y="1278" type="line"/>
      <point x="396" y="1280"/>
      <point x="494" y="1280"/>
      <point x="600" y="1280" type="curve"/>
      <point x="706" y="1280"/>
      <point x="804" y="1280"/>
      <point x="892" y="1278" type="curve"/>
      <point x="892" y="1338" type="line"/>
      <point x="804" y="1336"/>
      <point x="706" y="1336"/>
      <point x="600" y="1336" type="curve"/>
      <point x="494" y="1336"/>
      <point x="396" y="1336"/>
      <point x="308" y="1338" type="curve"/>
    </contour>
  </outline>
</glyph>
<glyph name="ogonekcomb.a" format="2">
  <anchor x="598" y="0" name="_ogonek"/>
  <outline>
    <contour>
      <point x="562" y="-400" type="curve" smooth="yes"/>
      <point x="596" y="-400"/>
      <point x="636" y="-394"/>
      <point x="666" y="-388" type="curve"/>
      <point x="666" y="-326" type="line"/>
      <point x="644" y="-334"/>
      <point x="606" y="-342"/>
      <point x="562" y="-342" type="curve" smooth="yes"/>
      <point x="492" y="-342"/>
      <point x="446" y="-312"/>
      <point x="446" y="-246" type="curve" smooth="yes"/>
      <point x="446" y="-160"/>
      <point x="544" y="-62"/>
      <point x="658" y="0" type="curve"/>
      <point x="622" y="42" type="line"/>
      <point x="604" y="42" type="line"/>
      <point x="604" y="20" type="line"/>
      <point x="448" y="-74"/>
      <point x="384" y="-162"/>
      <point x="384" y="-252" type="curve" smooth="yes"/>
      <point x="384" y="-344"/>
      <point x="456" y="-400"/>
    </contour>
  </outline>
</glyph>
<glyph name="tildecomb.narrow" format="2">
  <anchor x="600" y="988" name="_top"/>
  <anchor x="600" y="1350" name="top"/>
  <outline>
    <contour>
      <point x="746" y="1176" type="curve" smooth="yes"/>
      <point x="840" y="1176"/>
      <point x="898" y="1254"/>
      <point x="898" y="1398" type="curve"/>
      <point x="844" y="1398" type="line"/>
      <point x="838" y="1286"/>
      <point x="812" y="1242"/>
      <point x="748" y="1238" type="curve"/>
      <point x="642" y="1242"/>
      <point x="584" y="1424"/>
      <point x="454" y="1424" type="curve" smooth="yes"/>
      <point x="360" y="1424"/>
      <point x="304" y="1344"/>
      <point x="304" y="1202" type="curve"/>
      <point x="356" y="1202" type="line"/>
      <point x="362" y="1314"/>
      <point x="392" y="1358"/>
      <point x="454" y="1362" type="curve"/>
      <point x="560" y="1358"/>
      <point x="618" y="1176"/>
    </contour>
  </outline>
</glyph>
<glyph name="zero.dnom" format="2">
  <advance width="928"/>
  <note>
254, 251
</note>
  <outline>
    <contour>
      <point x="468" y="-12" type="curve" smooth="yes"/>
      <point x="696" y="-12"/>
      <point x="828" y="170"/>
      <point x="828" y="462" type="curve" smooth="yes"/>
      <point x="828" y="744"/>
      <point x="702" y="934"/>
      <point x="464" y="934" type="curve" smooth="yes"/>
      <point x="232" y="934"/>
      <point x="100" y="748"/>
      <point x="100" y="460" type="curve" smooth="yes"/>
      <point x="100" y="186"/>
      <point x="218" y="-12"/>
    </contour>
    <contour>
      <point x="464" y="48" type="curve"/>
      <point x="248" y="50"/>
      <point x="162" y="220"/>
      <point x="162" y="462" type="curve" smooth="yes"/>
      <point x="162" y="700"/>
      <point x="252" y="872"/>
      <point x="464" y="874" type="curve"/>
      <point x="674" y="872"/>
      <point x="766" y="712"/>
      <point x="766" y="462" type="curve" smooth="yes"/>
      <point x="766" y="224"/>
      <point x="682" y="50"/>
    </contour>
  </outline>
</glyph>
